<?xml version="1.0" standalone="no"?>
<!DOCTYPE svg PUBLIC "-//W3C//DTD SVG 20010904//EN"
 "http://www.w3.org/TR/2001/REC-SVG-20010904/DTD/svg10.dtd">
<svg version="1.0" xmlns="http://www.w3.org/2000/svg"
 width="4096.000000pt" height="3384.000000pt" viewBox="0 0 4096.000000 3384.000000"
 preserveAspectRatio="xMidYMid meet">

<g transform="translate(0.000000,3384.000000) scale(0.100000,-0.100000)"
fill="#000000" stroke="none">
<path d="M22600 33829 c-119 -10 -369 -42 -510 -65 -508 -84 -1011 -314 -1450
-663 -122 -96 -394 -369 -492 -491 -371 -468 -597 -987 -690 -1585 -26 -168
-36 -578 -19 -762 95 -1005 644 -1896 1501 -2432 285 -179 634 -326 960 -404
200 -49 581 -98 860 -113 139 -7 426 8 607 32 511 66 1000 230 1433 479 169
97 446 286 547 374 91 78 176 186 202 256 12 33 45 253 95 640 42 325 79 604
82 620 3 17 -23 -33 -59 -110 -268 -589 -657 -1047 -1189 -1403 -482 -322
-869 -478 -1373 -554 -118 -17 -494 -17 -595 0 -226 40 -379 90 -585 192 -308
153 -560 372 -726 630 -533 831 -731 1766 -574 2716 73 436 210 823 444 1248
141 256 224 371 381 525 404 397 949 603 1493 563 333 -25 651 -103 967 -238
402 -172 914 -620 1252 -1097 142 -200 245 -385 401 -717 15 -33 16 2 14 555
l-2 590 -36 75 c-103 216 -370 441 -798 674 -640 349 -1437 522 -2141 465z"/>
<path d="M32695 33819 c-187 -16 -539 -71 -678 -106 -1149 -288 -2054 -1193
-2350 -2348 -73 -284 -100 -506 -100 -815 1 -524 103 -962 333 -1425 101 -204
181 -336 304 -498 453 -604 1101 -1029 1840 -1207 140 -34 478 -84 684 -101
197 -16 582 -6 777 20 411 56 761 155 1125 321 424 192 894 522 1018 714 18
27 39 72 47 100 15 51 169 1210 163 1228 -2 5 -29 -49 -61 -120 -237 -530
-625 -998 -1105 -1335 -156 -110 -467 -294 -597 -354 -494 -228 -1043 -318
-1482 -243 -523 90 -1004 395 -1272 809 -338 519 -542 1089 -612 1711 -20 173
-17 630 5 810 54 448 176 861 367 1242 200 399 304 554 501 744 315 304 717
495 1148 545 127 14 390 7 540 -16 269 -41 596 -139 816 -245 390 -186 877
-623 1196 -1073 139 -196 311 -504 387 -692 l20 -50 0 582 c1 562 0 584 -19
637 -88 233 -432 516 -933 766 -436 217 -894 347 -1395 395 -166 16 -500 18
-667 4z"/>
<path d="M3210 33814 c-448 -41 -747 -95 -1008 -185 -481 -166 -887 -422
-1252 -788 -264 -265 -460 -542 -625 -883 -201 -418 -304 -839 -322 -1313 -12
-345 35 -707 137 -1044 337 -1114 1260 -1972 2395 -2226 363 -81 802 -113
1180 -84 779 58 1479 320 2104 788 130 97 216 191 266 291 70 138 68 122 75
780 7 658 5 639 76 789 46 99 108 184 188 259 l67 62 -862 0 -861 0 46 -38
c128 -106 223 -261 268 -437 18 -72 21 -129 28 -585 9 -537 6 -596 -35 -705
-70 -187 -203 -308 -574 -520 -255 -146 -451 -238 -606 -284 -726 -215 -1508
24 -1998 610 -74 90 -137 185 -242 369 -261 455 -409 900 -482 1440 -22 168
-25 675 -5 840 55 444 162 825 337 1196 79 167 237 450 308 550 73 103 241
281 344 365 252 207 583 361 898 421 168 31 476 31 680 0 363 -56 750 -189
985 -337 406 -256 797 -642 1074 -1060 135 -204 199 -321 339 -625 15 -33 16
6 14 560 l-2 595 -32 65 c-71 143 -222 297 -441 448 -530 365 -1122 587 -1782
667 -128 16 -576 28 -680 19z"/>
<path d="M10052 33500 c104 -92 188 -224 239 -375 l24 -70 6 -1970 c6 -2131 2
-1987 57 -2201 63 -240 192 -493 351 -688 85 -103 253 -261 361 -339 99 -71
378 -214 555 -285 338 -135 715 -224 1070 -253 201 -16 573 -6 771 20 427 57
793 170 1174 361 529 265 882 733 996 1320 18 90 19 205 24 2065 5 1858 7
1973 24 2030 43 145 140 296 248 386 l59 49 -481 0 -482 0 76 -71 c137 -128
223 -292 246 -471 8 -58 10 -657 8 -1993 l-3 -1910 -27 -105 c-82 -326 -233
-582 -476 -804 -158 -143 -440 -288 -744 -380 -406 -123 -837 -149 -1243 -75
-244 44 -553 146 -746 246 -396 204 -697 610 -789 1063 -20 96 -20 138 -20
2022 0 1879 1 1925 20 2005 41 172 118 299 263 431 l47 42 -833 0 -832 0 57
-50z"/>
<path d="M39327 33508 c141 -122 231 -273 267 -451 14 -68 16 -342 16 -2632 0
-2290 -2 -2564 -16 -2632 -33 -159 -109 -297 -229 -415 l-69 -68 817 0 817 0
-69 68 c-113 111 -186 238 -222 387 -18 78 -19 147 -19 2660 0 2510 1 2582 19
2660 37 153 108 276 228 393 l74 72 -831 0 -832 0 49 -42z"/>
<path d="M15125 21570 c-414 -24 -860 -74 -1250 -140 -2799 -473 -5291 -2039
-6960 -4375 -1029 -1440 -1698 -3137 -1919 -4875 -57 -448 -75 -713 -83 -1205
-10 -709 34 -1289 152 -1980 325 -1901 1130 -3655 2349 -5114 292 -350 738
-812 1056 -1095 1072 -955 2247 -1656 3585 -2141 1530 -554 3171 -752 4795
-580 1172 125 2385 468 3445 974 94 44 175 81 181 81 6 0 76 -31 155 -69 1711
-816 3596 -1166 5469 -1015 3088 248 5940 1814 7791 4279 1715 2282 2463 5221
2048 8045 -242 1650 -869 3226 -1827 4600 -490 701 -1054 1337 -1692 1905
-1682 1499 -3787 2429 -6025 2660 -482 49 -1201 69 -1661 46 -1451 -74 -2817
-417 -4120 -1035 l-141 -66 -158 76 c-755 360 -1606 646 -2425 813 -484 98
-887 155 -1410 197 -228 18 -1118 27 -1355 14z m935 -2120 c626 -26 1216 -111
1810 -260 178 -45 430 -117 438 -125 3 -3 -14 -22 -39 -43 -1262 -1070 -2265
-2425 -2921 -3947 -170 -394 -339 -866 -448 -1250 -17 -60 -33 -118 -36 -128
-5 -16 51 -17 1111 -15 l1117 3 53 140 c552 1466 1472 2741 2673 3708 221 178
633 477 657 477 29 0 538 -378 765 -567 1007 -840 1807 -1891 2346 -3079 65
-144 203 -484 258 -636 l18 -48 1114 0 c826 0 1114 3 1114 11 0 53 -213 707
-325 999 -158 412 -406 946 -610 1315 -612 1109 -1398 2084 -2353 2916 l-152
133 92 28 c544 167 1138 285 1723 342 564 55 1265 46 1845 -24 1577 -192 3092
-831 4353 -1837 492 -392 973 -872 1369 -1364 635 -791 1134 -1710 1451 -2674
231 -702 358 -1353 419 -2155 16 -211 16 -934 0 -1145 -47 -620 -131 -1131
-273 -1668 -340 -1279 -965 -2449 -1851 -3463 -151 -172 -509 -536 -688 -698
-586 -530 -1191 -950 -1885 -1307 -1868 -961 -3992 -1206 -6027 -696 -250 63
-540 148 -536 157 2 4 52 49 113 101 425 366 884 833 1250 1274 1237 1489
2054 3306 2349 5220 31 199 75 565 89 733 l4 52 -2563 0 -2564 0 0 -1075 0
-1075 1245 0 c685 0 1245 -2 1245 -4 0 -3 -37 -96 -81 -208 -539 -1347 -1399
-2522 -2534 -3462 -242 -200 -697 -531 -720 -523 -50 20 -519 366 -720 533
-316 261 -718 648 -966 930 -680 771 -1195 1604 -1574 2549 l-72 180 1248 3
1249 2 0 1075 0 1075 -2565 0 -2565 0 0 -30 c0 -59 42 -439 71 -650 94 -668
256 -1351 468 -1970 610 -1787 1670 -3373 3083 -4613 81 -71 148 -131 148
-132 0 -10 -454 -134 -676 -184 -703 -159 -1279 -218 -2036 -208 -498 6 -819
33 -1248 103 -3087 506 -5676 2635 -6743 5545 -265 723 -429 1449 -501 2219
-55 581 -46 1265 24 1840 183 1500 757 2922 1671 4140 1724 2296 4424 3578
7289 3460z"/>
</g>
</svg>
