<?xml version="1.0" standalone="no"?>
<!DOCTYPE svg PUBLIC "-//W3C//DTD SVG 20010904//EN"
 "http://www.w3.org/TR/2001/REC-SVG-20010904/DTD/svg10.dtd">
<svg version="1.0" xmlns="http://www.w3.org/2000/svg"
 width="224.000000pt" height="224.000000pt" viewBox="0 0 224.000000 224.000000"
 preserveAspectRatio="xMidYMid meet">

<g transform="translate(0.000000,224.000000) scale(0.100000,-0.100000)"
fill="#000000" stroke="none">
<path d="M1079 1863 c-109 -146 -169 -339 -169 -539 l0 -84 209 0 209 0 7 58
c14 123 -34 338 -107 474 -30 57 -93 138 -107 138 -4 0 -23 -21 -42 -47z"/>
<path d="M313 1531 c6 -76 38 -194 68 -253 l19 -38 242 0 c229 0 240 1 226 18
-8 9 -34 41 -59 70 -54 66 -164 150 -258 197 -60 30 -200 75 -234 75 -6 0 -8
-27 -4 -69z"/>
<path d="M1843 1580 c-79 -21 -188 -72 -261 -122 -52 -36 -156 -137 -190 -185
l-23 -33 240 0 240 0 15 28 c47 92 90 319 61 328 -5 2 -43 -6 -82 -16z"/>
<path d="M440 1165 c0 -3 7 -17 16 -30 l16 -25 648 0 c698 0 655 -3 684 48 6
9 -133 12 -678 12 -377 0 -686 -2 -686 -5z"/>
<path d="M555 1020 l29 -30 541 0 542 0 21 23 c12 13 22 26 22 30 0 4 -266 7
-592 7 l-592 0 29 -30z"/>
<path d="M700 910 c56 -46 184 -100 273 -116 l38 -6 -3 68 -3 69 -165 2 -165
3 25 -20z"/>
<path d="M1030 918 c0 -15 55 -101 79 -122 18 -16 20 -15 53 31 35 48 58 87
58 97 0 3 -43 6 -95 6 -66 0 -95 -4 -95 -12z"/>
<path d="M1247 923 c-4 -3 -7 -35 -7 -71 l0 -64 43 7 c62 11 161 50 228 91 33
19 59 37 59 40 0 7 -316 5 -323 -3z"/>
<path d="M850 645 c0 -54 0 -54 -26 -45 -106 41 -216 -45 -200 -155 6 -34 16
-52 47 -79 21 -20 47 -36 57 -37 9 0 24 -2 33 -4 8 -1 32 3 52 10 20 7 37 9
37 4 0 -5 16 -9 35 -9 l35 0 0 185 0 185 -35 0 -35 0 0 -55z m-26 -126 c29
-34 32 -50 14 -82 -26 -50 -77 -61 -122 -26 -35 28 -36 80 -1 114 35 35 76 33
109 -6z"/>
<path d="M952 668 c3 -29 6 -33 33 -33 27 0 30 4 33 33 3 31 2 32 -33 32 -35
0 -36 -1 -33 -32z"/>
<path d="M1270 645 c0 -52 -1 -55 -19 -45 -56 29 -151 -2 -183 -61 -48 -90 14
-210 108 -209 16 0 59 0 97 0 l67 0 0 185 0 185 -35 0 -35 0 0 -55z m-26 -116
c20 -16 26 -29 26 -59 0 -30 -6 -43 -26 -59 -15 -12 -37 -21 -49 -21 -12 0
-34 9 -49 21 -20 16 -26 29 -26 59 0 30 6 43 26 59 15 12 37 21 49 21 12 0 34
-9 49 -21z"/>
<path d="M1890 696 c0 -2 9 -6 20 -9 11 -3 18 -1 14 4 -5 9 -34 13 -34 5z"/>
<path d="M1890 665 c0 -8 5 -15 10 -15 6 0 10 7 10 15 0 8 -4 15 -10 15 -5 0
-10 -7 -10 -15z"/>
<path d="M373 590 c-83 -50 -94 -157 -23 -225 36 -34 95 -47 144 -30 20 7 36
9 36 4 0 -5 16 -9 35 -9 l35 0 0 140 0 140 -35 0 c-19 0 -35 -4 -35 -10 0 -6
-9 -6 -26 0 -40 16 -96 12 -131 -10z m118 -53 c43 -33 50 -87 14 -122 -32 -33
-78 -33 -110 0 -16 15 -25 36 -25 55 0 60 76 102 121 67z"/>
<path d="M950 470 l0 -140 35 0 35 0 0 140 0 140 -35 0 -35 0 0 -140z"/>
<path d="M1432 590 c-21 -13 -41 -38 -54 -67 -18 -40 -19 -51 -8 -86 24 -83
106 -129 181 -103 22 8 39 10 39 5 0 -5 16 -9 35 -9 l35 0 0 140 0 140 -35 0
c-19 0 -35 -5 -35 -10 0 -7 -6 -7 -19 0 -32 17 -103 12 -139 -10z m133 -65
c16 -15 25 -36 25 -55 0 -36 -38 -80 -69 -80 -48 0 -91 41 -91 86 0 25 56 74
85 74 14 0 37 -11 50 -25z"/>
<path d="M1742 600 c-31 -13 -55 -71 -42 -104 11 -30 38 -46 105 -60 39 -9 50
-16 50 -31 0 -30 -69 -34 -87 -6 -16 26 -78 30 -78 5 0 -24 55 -74 84 -75 81
-4 104 0 130 24 65 56 33 129 -63 147 -65 12 -86 26 -70 46 17 21 67 17 81 -6
9 -13 24 -20 45 -20 42 0 42 13 -1 56 -30 30 -40 34 -82 33 -27 0 -59 -4 -72
-9z"/>
</g>
</svg>
