<?xml version="1.0" standalone="no"?>
<!DOCTYPE svg PUBLIC "-//W3C//DTD SVG 20010904//EN"
 "http://www.w3.org/TR/2001/REC-SVG-20010904/DTD/svg10.dtd">
<svg version="1.0" xmlns="http://www.w3.org/2000/svg"
 width="866.000000pt" height="650.000000pt" viewBox="0 0 866.000000 650.000000"
 preserveAspectRatio="xMidYMid meet">

<g transform="translate(0.000000,650.000000) scale(0.100000,-0.100000)"
fill="#000000" stroke="none">
<path d="M5220 5405 c0 -58 3 -105 8 -105 60 -1 197 -25 231 -42 72 -35 87
-112 35 -186 -9 -13 -233 -537 -499 -1163 -265 -627 -486 -1141 -490 -1142 -5
-1 -67 126 -138 283 l-129 285 17 50 c21 61 309 845 407 1110 39 105 76 202
84 217 31 60 128 105 244 114 135 11 124 3 164 107 20 51 36 96 36 100 0 4
-258 7 -573 7 l-573 0 -35 -97 c-20 -54 -34 -101 -32 -105 2 -5 24 -8 48 -8
88 0 155 -47 155 -108 0 -21 -24 -92 -150 -442 -50 -140 -95 -259 -99 -263 -4
-4 -112 219 -240 495 -128 277 -243 519 -256 538 -62 97 -38 140 88 155 l58 7
-3 117 -3 116 -557 3 -558 2 0 -119 0 -119 67 -7 c148 -14 249 -54 297 -118
13 -17 80 -151 149 -297 126 -268 550 -1171 647 -1378 l53 -112 -191 -513
c-105 -281 -194 -524 -198 -539 -10 -46 -74 -94 -162 -122 -89 -28 -185 -42
-354 -51 l-117 -7 -36 -91 c-19 -51 -35 -95 -35 -99 0 -5 715 -8 1590 -8 894
0 1590 4 1590 9 0 4 97 214 215 466 118 251 215 459 215 461 0 2 -51 4 -112 4
l-113 0 -59 -121 c-154 -315 -340 -520 -538 -591 l-63 -23 -759 -3 c-418 -1
-765 -1 -771 2 -8 3 24 100 93 286 95 253 107 280 119 264 8 -11 50 -92 94
-181 l81 -163 207 0 208 0 12 28 c15 31 344 803 551 1292 361 852 624 1468
641 1502 57 112 162 170 352 193 l47 6 0 105 0 104 -480 0 -480 0 0 -105z"/>
<path d="M5800 1228 l0 -208 25 0 25 0 0 148 1 147 149 -155 149 -155 1 208 0
208 -22 -3 c-23 -3 -23 -5 -23 -146 0 -78 -2 -142 -5 -142 -3 -1 -71 68 -152
152 l-147 153 -1 -207z"/>
<path d="M2507 1413 c-4 -3 -7 -93 -7 -200 l0 -193 85 0 c78 0 85 2 85 20 0
18 -7 20 -60 20 l-60 0 0 180 c0 168 -1 180 -18 180 -10 0 -22 -3 -25 -7z"/>
<path d="M2791 1397 c-24 -12 -57 -42 -75 -66 -28 -39 -31 -50 -31 -116 0 -65
3 -78 30 -116 45 -64 104 -91 186 -87 77 4 123 29 163 91 67 104 25 247 -88
301 -50 24 -134 21 -185 -7z m191 -48 c34 -25 67 -90 68 -133 0 -44 -38 -115
-73 -136 -53 -32 -101 -35 -154 -8 -75 37 -105 98 -89 183 9 45 58 102 100
115 45 13 113 4 148 -21z"/>
<path d="M3140 1275 c0 -158 8 -192 54 -234 38 -35 122 -41 169 -12 58 36 67
68 67 241 0 151 0 151 -22 148 -22 -3 -23 -7 -28 -159 -4 -133 -8 -160 -23
-177 -25 -28 -62 -35 -104 -21 -53 17 -63 52 -63 219 l0 140 -25 0 -25 0 0
-145z"/>
<path d="M3500 1220 l0 -200 25 0 25 0 0 200 0 200 -25 0 -25 0 0 -200z"/>
<path d="M3662 1395 c-70 -59 -48 -127 59 -180 79 -40 98 -68 77 -113 -7 -14
-25 -33 -40 -42 -25 -13 -31 -13 -55 0 -15 9 -33 27 -40 40 -7 14 -17 25 -23
24 -27 -3 -30 -5 -30 -25 0 -12 15 -36 34 -55 28 -28 41 -34 78 -34 79 0 129
45 130 118 1 58 -23 89 -97 124 -79 36 -92 50 -79 86 14 40 66 52 103 24 25
-19 31 -19 47 -6 18 13 18 15 -9 39 -40 35 -113 35 -155 0z"/>
<path d="M4030 1409 c0 -6 37 -101 82 -211 61 -149 84 -195 91 -183 19 34 157
379 157 392 0 9 -8 13 -22 11 -18 -2 -32 -28 -78 -140 -31 -75 -58 -140 -62
-143 -3 -3 -32 59 -64 137 -49 118 -63 144 -82 146 -12 2 -22 -2 -22 -9z"/>
<path d="M4400 1270 c0 -173 9 -205 64 -240 50 -30 133 -25 172 11 46 42 54
76 54 234 0 146 0 146 -22 143 -22 -3 -23 -7 -28 -153 -3 -92 -10 -158 -17
-172 -16 -26 -72 -46 -106 -38 -55 14 -62 34 -67 204 -5 152 -6 156 -27 159
-23 3 -23 3 -23 -148z"/>
<path d="M4760 1221 l0 -201 25 0 25 0 -2 198 c-3 196 -3 197 -25 200 l-23 3
0 -200z"/>
<path d="M4850 1395 c0 -23 4 -25 45 -25 l45 0 0 -175 0 -175 25 0 25 0 0 175
0 175 95 0 95 0 0 -175 0 -175 25 0 25 0 0 175 0 175 51 0 c47 0 50 2 47 23
l-3 22 -237 2 -238 3 0 -25z"/>
<path d="M5465 1406 c-68 -30 -124 -117 -125 -192 0 -58 43 -139 93 -172 35
-23 51 -27 117 -27 68 0 81 3 118 29 50 34 92 112 92 170 -1 76 -64 169 -133
195 -39 15 -126 13 -162 -3z m181 -61 c72 -55 82 -173 21 -239 -112 -118 -300
-20 -273 142 8 50 34 83 87 110 55 29 117 24 165 -13z"/>
</g>
</svg>
