<?xml version="1.0" standalone="no"?>
<!DOCTYPE svg PUBLIC "-//W3C//DTD SVG 20010904//EN"
 "http://www.w3.org/TR/2001/REC-SVG-20010904/DTD/svg10.dtd">
<svg version="1.0" xmlns="http://www.w3.org/2000/svg"
 width="1280.000000pt" height="720.000000pt" viewBox="0 0 1280.000000 720.000000"
 preserveAspectRatio="xMidYMid meet">

<g transform="translate(0.000000,720.000000) scale(0.100000,-0.100000)"
fill="#000000" stroke="none">
<path d="M6363 5528 c-11 -13 -25 -32 -31 -43 -9 -18 -194 -489 -334 -850 -48
-123 -63 -160 -93 -230 -7 -16 -50 -123 -95 -237 -134 -342 -207 -475 -322
-584 -45 -43 -83 -68 -133 -89 -98 -40 -131 -73 -89 -89 8 -3 171 -6 361 -6
294 -1 349 2 361 14 22 21 3 40 -61 63 -74 26 -148 101 -170 173 -30 95 -24
167 23 282 45 109 49 114 121 121 80 9 543 9 632 0 50 -4 73 -11 88 -27 18
-19 64 -125 139 -318 30 -77 29 -152 -2 -185 -39 -42 -77 -55 -173 -61 -50 -2
-103 -11 -119 -20 -28 -14 -29 -15 -11 -28 11 -8 44 -14 79 -14 34 0 263 0
511 0 390 1 452 3 465 16 13 14 13 17 -4 30 -11 8 -29 14 -40 14 -51 0 -132
37 -183 84 -53 48 -84 97 -121 192 -11 27 -72 177 -137 334 -64 157 -131 319
-147 360 -16 41 -41 102 -55 135 -14 33 -31 74 -38 90 -7 17 -68 165 -135 330
-114 281 -157 383 -200 480 -10 22 -29 50 -42 63 l-24 22 -21 -22z m-105 -564
c23 -58 85 -210 102 -249 43 -100 230 -574 230 -583 0 -9 -86 -12 -364 -12
-201 0 -367 3 -369 8 -3 4 17 63 44 132 50 127 125 318 139 355 4 11 12 31 18
45 6 14 38 97 72 185 34 88 67 166 72 173 18 21 32 8 56 -54z"/>
<path d="M11497 5518 c-13 -18 -59 -121 -101 -228 -42 -107 -81 -204 -86 -215
-4 -11 -16 -40 -25 -65 -9 -25 -23 -58 -30 -75 -7 -16 -32 -79 -55 -140 -24
-60 -49 -123 -55 -140 -7 -16 -63 -154 -123 -305 -199 -494 -293 -682 -385
-767 -52 -48 -117 -87 -174 -104 -24 -6 -51 -21 -60 -31 -17 -19 -17 -20 2
-34 28 -21 692 -21 720 0 27 19 8 39 -57 63 -69 24 -142 91 -165 151 -28 74
-24 188 12 290 43 123 50 128 181 137 147 10 626 0 652 -14 37 -20 173 -361
174 -439 1 -50 -22 -87 -73 -117 -26 -15 -57 -21 -139 -23 -132 -5 -170 -27
-90 -51 54 -16 1002 -16 1033 1 l21 11 -22 17 c-12 10 -43 21 -69 25 -96 14
-189 79 -225 155 -35 75 -58 131 -113 265 -31 77 -65 158 -75 180 -10 22 -39
92 -65 155 -26 63 -55 133 -65 155 -10 22 -48 114 -85 205 -37 91 -75 183 -85
205 -10 22 -48 114 -85 205 -37 91 -75 183 -85 205 -9 22 -41 99 -71 170 -49
120 -84 183 -101 184 -4 1 -18 -14 -31 -31z m-79 -601 c22 -56 102 -252 176
-436 75 -184 136 -341 136 -348 0 -10 -71 -13 -365 -13 -394 0 -378 -2 -356
52 5 13 40 102 76 198 76 199 243 616 256 642 17 32 36 7 77 -95z"/>
<path d="M193 5504 c-14 -3 -23 -13 -23 -24 0 -15 10 -20 45 -24 25 -3 66 -9
93 -12 129 -16 196 -85 243 -249 21 -75 21 -1449 0 -1515 -41 -127 -135 -202
-269 -216 -59 -6 -112 -22 -112 -33 0 -29 31 -31 616 -31 521 0 593 2 604 15
22 27 -5 39 -98 46 -191 13 -288 103 -312 291 -5 40 -10 181 -10 314 0 220 2
242 18 257 16 15 61 17 363 21 355 3 401 8 549 53 103 31 231 103 291 162 197
198 196 543 -3 743 -103 103 -272 167 -493 187 -115 10 -1463 23 -1502 15z
m1282 -54 c106 -13 163 -30 228 -72 134 -86 197 -250 184 -478 -12 -197 -42
-287 -125 -368 -111 -108 -208 -130 -564 -131 -208 -1 -208 -1 -223 23 -14 20
-15 84 -13 514 3 478 4 492 23 506 16 12 56 15 210 16 105 0 230 -5 280 -10z"/>
<path d="M2600 5499 l-25 -10 23 -19 c13 -11 46 -21 80 -25 113 -11 180 -48
230 -125 58 -90 57 -80 57 -870 0 -673 -1 -729 -18 -777 -40 -116 -106 -167
-250 -197 -112 -23 -141 -42 -98 -66 13 -6 211 -10 565 -10 459 0 551 2 574
14 l27 15 -35 14 c-19 8 -58 18 -86 22 -81 11 -171 61 -210 118 -19 27 -39 65
-46 85 -17 52 -24 728 -7 748 9 11 50 14 198 14 l187 0 26 -27 c14 -16 80
-113 146 -218 66 -104 168 -266 227 -360 59 -93 137 -217 173 -275 102 -166
55 -150 448 -150 289 0 335 2 340 15 11 28 -15 42 -87 49 -39 4 -89 14 -112
22 -102 36 -119 56 -361 437 -151 239 -142 230 -272 267 -39 11 -110 40 -158
65 -107 55 -256 151 -256 165 0 6 43 10 113 10 196 0 415 38 576 100 213 82
318 210 329 399 5 102 -8 175 -48 259 -52 111 -170 214 -299 263 -134 50 -157
51 -1071 55 -590 3 -863 1 -880 -7z m1515 -58 c79 -17 189 -76 230 -123 149
-174 153 -518 9 -678 -52 -57 -108 -94 -185 -121 -61 -22 -80 -23 -422 -27
-270 -3 -361 -1 -372 8 -13 11 -15 81 -15 468 0 420 1 457 18 475 16 19 29 19
352 14 184 -3 358 -11 385 -16z"/>
<path d="M7698 5498 c-31 -23 -5 -36 97 -48 140 -17 195 -50 243 -146 54 -107
54 -113 54 -869 0 -692 0 -701 -22 -768 -37 -117 -126 -184 -270 -201 -61 -8
-110 -24 -110 -37 0 -27 61 -30 767 -29 774 0 814 3 968 50 360 112 630 408
701 769 19 98 19 295 0 392 -79 403 -341 711 -708 834 -174 58 -181 58 -973
62 -590 3 -733 2 -747 -9z m1364 -53 c156 -25 282 -90 379 -193 102 -109 185
-310 218 -532 19 -129 32 -292 27 -329 -3 -20 -8 -72 -11 -116 -6 -76 -23
-175 -45 -257 -6 -21 -14 -53 -19 -70 -15 -57 -59 -156 -95 -216 -102 -167
-231 -239 -467 -261 -161 -15 -531 -15 -547 1 -9 9 -12 243 -12 990 0 920 1
978 18 987 27 16 451 13 554 -4z"/>
<path d="M8453 1955 c-83 -23 -152 -63 -219 -126 -103 -99 -147 -205 -146
-349 1 -286 222 -500 517 -500 152 0 264 47 370 154 64 64 86 99 125 191 7 17
15 73 18 126 8 155 -36 270 -142 374 -102 100 -223 145 -381 144 -49 0 -114
-7 -142 -14z m235 -72 c99 -13 220 -93 277 -183 107 -169 78 -398 -68 -526
-95 -84 -236 -124 -362 -103 -156 26 -265 105 -328 239 -40 83 -49 210 -22
296 29 93 124 196 221 241 59 27 178 53 212 47 12 -2 43 -7 70 -11z"/>
<path d="M7711 1942 c-20 -16 -21 -28 -23 -382 -2 -278 -6 -365 -15 -365 -13
0 -63 59 -373 435 -237 288 -256 308 -302 316 -67 11 -68 8 -68 -485 0 -377 2
-431 16 -445 18 -19 63 -21 69 -3 3 6 6 176 8 377 2 333 7 400 26 400 3 0 16
-16 29 -35 36 -56 581 -717 612 -742 25 -21 73 -11 87 17 18 36 19 893 1 907
-26 20 -48 22 -67 5z"/>
<path d="M3157 1933 c-15 -17 -17 -62 -18 -461 -2 -476 -2 -476 50 -470 l26 3
5 360 c3 198 7 361 8 363 8 9 31 -1 37 -15 3 -10 81 -143 172 -296 121 -202
169 -275 177 -267 7 5 88 138 182 294 93 157 175 285 182 286 9 0 12 -73 12
-335 0 -372 2 -388 54 -383 25 2 32 9 37 33 4 17 7 211 8 433 1 484 0 493 -83
458 -28 -12 -52 -44 -151 -212 -174 -293 -235 -389 -247 -389 -9 0 -76 108
-278 450 -41 69 -82 132 -90 140 -27 24 -64 28 -83 8z"/>
<path d="M4472 1938 c-9 -9 -12 -117 -12 -464 0 -493 -2 -479 57 -472 l28 3 0
470 0 470 -30 3 c-17 2 -36 -3 -43 -10z"/>
<path d="M4922 1938 c-16 -16 -17 -889 -2 -919 10 -18 25 -19 346 -19 l334 0
11 24 c8 17 8 29 0 45 -12 21 -17 21 -286 21 -154 0 -285 4 -299 10 l-26 10 0
408 c0 429 0 432 -45 432 -12 0 -26 -5 -33 -12z"/>
<path d="M6147 1933 c-8 -10 -64 -117 -122 -238 -123 -251 -289 -596 -310
-640 -16 -35 -5 -55 31 -55 34 0 70 37 96 100 52 122 99 201 131 220 29 18 51
20 227 20 173 0 199 -2 226 -19 30 -19 86 -111 132 -221 30 -70 64 -102 106
-98 26 3 31 7 29 28 0 14 -81 187 -178 385 -97 198 -191 389 -207 425 -41 88
-63 110 -108 110 -22 0 -43 -7 -53 -17z m164 -300 c67 -138 87 -188 78 -194
-7 -4 -93 -8 -191 -9 -140 0 -180 2 -184 13 -5 14 147 341 173 369 9 10 20 15
24 12 5 -3 50 -89 100 -191z"/>
</g>
</svg>
