<?xml version="1.0" encoding="UTF-8"?>
<svg xmlns="http://www.w3.org/2000/svg" xmlns:xlink="http://www.w3.org/1999/xlink" width="400px" height="400px" viewBox="0 0 400 330" version="1.1">
<g id="surface1">
<path style=" stroke:none;fill-rule:nonzero;fill:rgb(0%,0%,0%);fill-opacity:1;" d="M 220.703125 0.105469 C 219.539062 0.203125 217.101562 0.515625 215.722656 0.742188 C 210.761719 1.558594 205.851562 3.804688 201.5625 7.207031 C 200.371094 8.144531 197.714844 10.804688 196.757812 11.996094 C 193.132812 16.558594 190.929688 21.621094 190.019531 27.453125 C 189.765625 29.089844 189.667969 33.085938 189.835938 34.882812 C 190.761719 44.683594 196.125 53.371094 204.492188 58.597656 C 207.273438 60.34375 210.683594 61.777344 213.867188 62.539062 C 215.820312 63.015625 219.539062 63.492188 222.265625 63.640625 C 223.625 63.707031 226.425781 63.5625 228.195312 63.328125 C 233.183594 62.683594 237.960938 61.085938 242.1875 58.65625 C 243.835938 57.710938 246.542969 55.867188 247.53125 55.007812 C 248.417969 54.25 249.25 53.195312 249.5 52.511719 C 249.617188 52.191406 249.941406 50.046875 250.429688 46.273438 C 250.839844 43.101562 251.203125 40.382812 251.230469 40.226562 C 251.257812 40.058594 251.007812 40.546875 250.65625 41.296875 C 248.039062 47.042969 244.238281 51.507812 239.042969 54.980469 C 234.335938 58.121094 230.554688 59.640625 225.632812 60.382812 C 224.484375 60.546875 220.8125 60.546875 219.824219 60.382812 C 217.617188 59.992188 216.125 59.503906 214.109375 58.511719 C 211.101562 57.019531 208.640625 54.882812 207.023438 52.367188 C 201.816406 44.261719 199.882812 35.144531 201.414062 25.882812 C 202.128906 21.628906 203.46875 17.855469 205.75 13.710938 C 207.128906 11.214844 207.9375 10.09375 209.472656 8.589844 C 213.417969 4.71875 218.742188 2.710938 224.054688 3.101562 C 227.304688 3.34375 230.410156 4.105469 233.496094 5.421875 C 237.421875 7.097656 242.421875 11.46875 245.722656 16.121094 C 247.109375 18.070312 248.117188 19.875 249.640625 23.113281 C 249.785156 23.433594 249.796875 23.09375 249.773438 17.699219 L 249.757812 11.945312 L 249.40625 11.214844 C 248.398438 9.109375 245.789062 6.914062 241.609375 4.640625 C 235.359375 1.238281 227.578125 -0.449219 220.703125 0.105469 Z M 220.703125 0.105469 "/>
<path style=" stroke:none;fill-rule:nonzero;fill:rgb(0%,0%,0%);fill-opacity:1;" d="M 319.289062 0.203125 C 317.460938 0.359375 314.023438 0.898438 312.664062 1.238281 C 301.445312 4.046875 292.609375 12.871094 289.71875 24.136719 C 289.003906 26.90625 288.742188 29.070312 288.742188 32.082031 C 288.75 37.191406 289.746094 41.464844 291.992188 45.980469 C 292.976562 47.96875 293.757812 49.257812 294.960938 50.835938 C 299.382812 56.726562 305.710938 60.871094 312.929688 62.605469 C 314.296875 62.9375 317.597656 63.425781 319.609375 63.589844 C 321.53125 63.746094 325.292969 63.648438 327.195312 63.394531 C 331.210938 62.851562 334.628906 61.882812 338.183594 60.265625 C 342.324219 58.394531 346.914062 55.175781 348.125 53.304688 C 348.300781 53.039062 348.507812 52.601562 348.585938 52.328125 C 348.730469 51.832031 350.234375 40.527344 350.175781 40.351562 C 350.15625 40.304688 349.890625 40.832031 349.578125 41.523438 C 347.265625 46.691406 343.476562 51.253906 338.789062 54.542969 C 337.265625 55.613281 334.226562 57.410156 332.960938 57.992188 C 328.132812 60.21875 322.773438 61.09375 318.484375 60.363281 C 313.378906 59.484375 308.679688 56.511719 306.0625 52.472656 C 302.765625 47.414062 300.773438 41.855469 300.085938 35.789062 C 299.890625 34.101562 299.921875 29.644531 300.136719 27.890625 C 300.664062 23.519531 301.855469 19.492188 303.71875 15.777344 C 305.671875 11.886719 306.6875 10.375 308.613281 8.523438 C 311.6875 5.558594 315.617188 3.695312 319.824219 3.207031 C 321.0625 3.070312 323.632812 3.140625 325.097656 3.363281 C 327.726562 3.765625 330.917969 4.71875 333.066406 5.753906 C 336.875 7.566406 341.632812 11.828125 344.746094 16.21875 C 346.101562 18.128906 347.78125 21.132812 348.523438 22.964844 L 348.71875 23.453125 L 348.71875 17.777344 C 348.730469 12.296875 348.71875 12.082031 348.535156 11.566406 C 347.675781 9.292969 344.316406 6.535156 339.421875 4.097656 C 335.164062 1.980469 330.695312 0.710938 325.800781 0.242188 C 324.179688 0.0859375 320.917969 0.0664062 319.289062 0.203125 Z M 319.289062 0.203125 "/>
<path style=" stroke:none;fill-rule:nonzero;fill:rgb(0%,0%,0%);fill-opacity:1;" d="M 31.347656 0.253906 C 26.972656 0.652344 24.054688 1.179688 21.503906 2.058594 C 16.804688 3.675781 12.84375 6.171875 9.277344 9.742188 C 6.699219 12.328125 4.785156 15.027344 3.171875 18.351562 C 1.210938 22.429688 0.203125 26.535156 0.03125 31.15625 C -0.0859375 34.519531 0.371094 38.050781 1.367188 41.335938 C 4.65625 52.203125 13.671875 60.566406 24.757812 63.046875 C 28.300781 63.835938 32.585938 64.148438 36.28125 63.863281 C 43.886719 63.296875 50.722656 60.742188 56.828125 56.179688 C 58.09375 55.234375 58.9375 54.316406 59.421875 53.34375 C 60.109375 51.996094 60.085938 52.152344 60.15625 45.734375 C 60.226562 39.320312 60.203125 39.503906 60.898438 38.042969 C 61.347656 37.078125 61.953125 36.246094 62.734375 35.515625 L 63.390625 34.910156 L 46.5625 34.910156 L 47.011719 35.28125 C 48.261719 36.316406 49.1875 37.828125 49.628906 39.542969 C 49.804688 40.246094 49.835938 40.800781 49.902344 45.25 C 49.992188 50.484375 49.960938 51.058594 49.5625 52.125 C 48.875 53.945312 47.578125 55.125 43.953125 57.195312 C 41.464844 58.617188 39.550781 59.515625 38.039062 59.964844 C 30.945312 62.058594 23.3125 59.730469 18.523438 54.015625 C 17.804688 53.136719 17.1875 52.210938 16.164062 50.417969 C 13.613281 45.980469 12.167969 41.640625 11.453125 36.375 C 11.242188 34.734375 11.210938 29.792969 11.40625 28.183594 C 11.945312 23.851562 12.988281 20.136719 14.695312 16.519531 C 15.46875 14.890625 17.011719 12.132812 17.703125 11.15625 C 18.417969 10.152344 20.058594 8.414062 21.0625 7.597656 C 23.523438 5.578125 26.757812 4.078125 29.835938 3.492188 C 31.476562 3.1875 34.484375 3.1875 36.476562 3.492188 C 40.019531 4.039062 43.796875 5.335938 46.09375 6.777344 C 50.058594 9.273438 53.875 13.039062 56.582031 17.113281 C 57.898438 19.105469 58.523438 20.246094 59.890625 23.210938 C 60.039062 23.53125 60.046875 23.152344 60.03125 17.75 L 60.007812 11.945312 L 59.695312 11.3125 C 59.003906 9.917969 57.53125 8.414062 55.390625 6.941406 C 50.214844 3.382812 44.433594 1.21875 37.988281 0.4375 C 36.738281 0.28125 32.363281 0.164062 31.347656 0.253906 Z M 31.347656 0.253906 "/>
<path style=" stroke:none;fill-rule:nonzero;fill:rgb(0%,0%,0%);fill-opacity:1;" d="M 98.164062 3.316406 C 99.179688 4.210938 100 5.5 100.5 6.972656 L 100.734375 7.65625 L 100.789062 26.867188 C 100.851562 47.648438 100.8125 46.242188 101.347656 48.328125 C 101.960938 50.671875 103.222656 53.136719 104.773438 55.039062 C 105.605469 56.042969 107.246094 57.585938 108.300781 58.34375 C 109.265625 59.039062 111.992188 60.433594 113.71875 61.125 C 117.023438 62.441406 120.703125 63.308594 124.171875 63.589844 C 126.132812 63.746094 129.765625 63.648438 131.699219 63.394531 C 135.867188 62.839844 139.445312 61.738281 143.164062 59.875 C 148.328125 57.292969 151.777344 52.726562 152.890625 47.003906 C 153.066406 46.125 153.078125 45.003906 153.125 26.867188 C 153.171875 8.746094 153.195312 7.625 153.359375 7.070312 C 153.78125 5.65625 154.726562 4.183594 155.78125 3.304688 L 156.359375 2.828125 L 146.953125 2.828125 L 147.695312 3.519531 C 149.03125 4.769531 149.875 6.367188 150.097656 8.113281 C 150.175781 8.679688 150.195312 14.519531 150.175781 27.546875 L 150.148438 46.175781 L 149.882812 47.199219 C 149.082031 50.378906 147.609375 52.875 145.234375 55.039062 C 143.691406 56.433594 140.9375 57.847656 137.96875 58.746094 C 134.003906 59.945312 129.796875 60.199219 125.828125 59.476562 C 123.445312 59.046875 120.429688 58.050781 118.546875 57.078125 C 114.679688 55.085938 111.738281 51.128906 110.839844 46.710938 C 110.644531 45.773438 110.644531 45.367188 110.644531 26.992188 C 110.644531 8.667969 110.65625 8.222656 110.839844 7.441406 C 111.242188 5.761719 111.992188 4.523438 113.40625 3.238281 L 113.867188 2.828125 L 97.609375 2.828125 Z M 98.164062 3.316406 "/>
<path style=" stroke:none;fill-rule:nonzero;fill:rgb(0%,0%,0%);fill-opacity:1;" d="M 384.054688 3.238281 C 385.429688 4.425781 386.308594 5.898438 386.660156 7.636719 C 386.796875 8.296875 386.816406 10.972656 386.816406 33.300781 C 386.816406 55.632812 386.796875 58.304688 386.660156 58.96875 C 386.335938 60.519531 385.59375 61.867188 384.421875 63.015625 L 383.75 63.679688 L 399.707031 63.679688 L 399.03125 63.015625 C 397.929688 61.933594 397.21875 60.695312 396.867188 59.242188 C 396.6875 58.480469 396.679688 57.808594 396.679688 33.300781 C 396.679688 8.824219 396.6875 8.125 396.867188 7.363281 C 397.226562 5.871094 397.921875 4.671875 399.09375 3.53125 L 399.8125 2.828125 L 383.574219 2.828125 Z M 384.054688 3.238281 "/>
<path style=" stroke:none;fill-rule:nonzero;fill:rgb(0%,0%,0%);fill-opacity:1;" d="M 147.703125 119.652344 C 143.664062 119.886719 139.304688 120.375 135.5 121.019531 C 108.164062 125.632812 83.828125 140.902344 67.53125 163.683594 C 57.480469 177.726562 50.945312 194.273438 48.789062 211.222656 C 48.234375 215.59375 48.054688 218.175781 47.976562 222.972656 C 47.882812 229.886719 48.3125 235.542969 49.460938 242.28125 C 52.636719 260.820312 60.5 277.925781 72.402344 292.152344 C 75.253906 295.566406 79.609375 300.070312 82.714844 302.832031 C 93.183594 312.144531 104.65625 318.980469 117.726562 323.710938 C 132.664062 329.113281 148.691406 331.042969 164.550781 329.367188 C 175.996094 328.148438 187.84375 324.800781 198.195312 319.867188 C 199.109375 319.4375 199.902344 319.078125 199.960938 319.078125 C 200.019531 319.078125 200.703125 319.378906 201.476562 319.75 C 218.183594 327.707031 236.59375 331.121094 254.882812 329.648438 C 285.039062 327.230469 312.890625 311.960938 330.96875 287.921875 C 347.714844 265.667969 355.019531 237.007812 350.96875 209.46875 C 348.601562 193.378906 342.480469 178.007812 333.125 164.609375 C 328.339844 157.773438 322.832031 151.570312 316.601562 146.03125 C 300.175781 131.414062 279.617188 122.347656 257.765625 120.09375 C 253.054688 119.617188 246.035156 119.421875 241.542969 119.644531 C 227.375 120.367188 214.03125 123.710938 201.308594 129.738281 L 199.929688 130.382812 L 198.390625 129.640625 C 191.015625 126.128906 182.703125 123.339844 174.707031 121.710938 C 169.980469 120.757812 166.046875 120.199219 160.9375 119.789062 C 158.710938 119.617188 150.019531 119.527344 147.703125 119.652344 Z M 156.835938 140.328125 C 162.949219 140.582031 168.710938 141.410156 174.511719 142.863281 C 176.25 143.300781 178.710938 144.003906 178.789062 144.082031 C 178.820312 144.113281 178.652344 144.296875 178.40625 144.5 C 166.085938 154.9375 156.289062 168.148438 149.882812 182.992188 C 148.222656 186.835938 146.570312 191.4375 145.507812 195.183594 C 145.34375 195.765625 145.1875 196.332031 145.15625 196.429688 C 145.109375 196.585938 145.65625 196.597656 156.007812 196.578125 L 166.914062 196.546875 L 167.429688 195.183594 C 172.820312 180.886719 181.804688 168.453125 193.535156 159.023438 C 195.695312 157.285156 199.71875 154.371094 199.953125 154.371094 C 200.234375 154.371094 205.203125 158.058594 207.421875 159.898438 C 217.257812 168.089844 225.070312 178.339844 230.332031 189.925781 C 230.96875 191.328125 232.3125 194.644531 232.851562 196.128906 L 233.027344 196.597656 L 243.90625 196.597656 C 251.972656 196.597656 254.785156 196.566406 254.785156 196.488281 C 254.785156 195.972656 252.703125 189.59375 251.609375 186.746094 C 250.070312 182.730469 247.648438 177.519531 245.65625 173.921875 C 239.679688 163.109375 232 153.601562 222.675781 145.488281 L 221.191406 144.191406 L 222.089844 143.917969 C 227.402344 142.289062 233.203125 141.136719 238.914062 140.582031 C 244.421875 140.046875 251.269531 140.132812 256.933594 140.816406 C 272.335938 142.6875 287.128906 148.917969 299.445312 158.730469 C 304.25 162.550781 308.945312 167.234375 312.8125 172.03125 C 319.015625 179.746094 323.886719 188.707031 326.984375 198.105469 C 329.238281 204.953125 330.476562 211.300781 331.074219 219.121094 C 331.230469 221.179688 331.230469 228.230469 331.074219 230.289062 C 330.617188 236.335938 329.796875 241.316406 328.40625 246.554688 C 325.085938 259.027344 318.984375 270.4375 310.332031 280.324219 C 308.859375 282 305.359375 285.550781 303.613281 287.132812 C 297.890625 292.300781 291.984375 296.394531 285.203125 299.875 C 266.960938 309.25 246.21875 311.636719 226.347656 306.664062 C 223.90625 306.050781 221.074219 305.222656 221.113281 305.132812 C 221.132812 305.09375 221.621094 304.65625 222.21875 304.148438 C 226.367188 300.578125 230.851562 296.023438 234.421875 291.722656 C 246.503906 277.203125 254.484375 259.484375 257.363281 240.820312 C 257.664062 238.878906 258.09375 235.308594 258.234375 233.671875 L 258.273438 233.164062 L 208.203125 233.164062 L 208.203125 254.132812 L 220.359375 254.132812 C 227.050781 254.132812 232.519531 254.152344 232.519531 254.171875 C 232.519531 254.199219 232.15625 255.105469 231.726562 256.199219 C 226.464844 269.335938 218.066406 280.792969 206.984375 289.960938 C 204.617188 291.910156 200.175781 295.136719 199.953125 295.058594 C 199.460938 294.863281 194.882812 291.492188 192.921875 289.863281 C 189.835938 287.316406 185.90625 283.542969 183.484375 280.792969 C 176.84375 273.273438 171.816406 265.152344 168.117188 255.933594 L 167.414062 254.179688 L 179.601562 254.152344 L 191.796875 254.132812 L 191.796875 233.164062 L 141.699219 233.164062 L 141.699219 233.457031 C 141.699219 234.03125 142.109375 237.738281 142.390625 239.796875 C 143.3125 246.308594 144.890625 252.972656 146.960938 259.007812 C 152.921875 276.433594 163.273438 291.898438 177.070312 303.992188 C 177.859375 304.683594 178.515625 305.269531 178.515625 305.277344 C 178.515625 305.375 174.082031 306.585938 171.914062 307.074219 C 165.046875 308.625 159.421875 309.199219 152.03125 309.101562 C 147.167969 309.042969 144.03125 308.78125 139.84375 308.097656 C 109.695312 303.164062 84.414062 282.402344 73.992188 254.023438 C 71.40625 246.972656 69.804688 239.894531 69.101562 232.382812 C 68.5625 226.71875 68.652344 220.046875 69.335938 214.441406 C 71.125 199.8125 76.726562 185.945312 85.65625 174.070312 C 102.492188 151.679688 128.859375 139.175781 156.835938 140.328125 Z M 156.835938 140.328125 "/>
</g>
</svg>
