<?xml version="1.0" encoding="UTF-8"?>
<svg xmlns="http://www.w3.org/2000/svg" xmlns:xlink="http://www.w3.org/1999/xlink" width="400px" height="400px" viewBox="0 0 400 400" version="1.1">
<g id="surface1">
<path style=" stroke:none;fill-rule:nonzero;fill:rgb(0%,0%,0%);fill-opacity:1;" d="M 192.679688 67.320312 C 173.214844 93.394531 162.5 127.855469 162.5 163.570312 L 162.5 178.570312 L 237.144531 178.570312 L 238.394531 168.214844 C 240.894531 146.25 232.320312 107.855469 219.285156 83.570312 C 213.929688 73.394531 202.679688 58.929688 200.179688 58.929688 C 199.464844 58.929688 196.070312 62.679688 192.679688 67.320312 Z M 192.679688 67.320312 "/>
<path style=" stroke:none;fill-rule:nonzero;fill:rgb(0%,0%,0%);fill-opacity:1;" d="M 55.894531 126.605469 C 56.964844 140.179688 62.679688 161.25 68.035156 171.785156 L 71.429688 178.570312 L 114.644531 178.570312 C 155.535156 178.570312 157.5 178.394531 155 175.355469 C 153.570312 173.75 148.929688 168.035156 144.464844 162.855469 C 134.820312 151.070312 115.179688 136.070312 98.394531 127.679688 C 87.679688 122.320312 62.679688 114.285156 56.605469 114.285156 C 55.535156 114.285156 55.179688 119.105469 55.894531 126.605469 Z M 55.894531 126.605469 "/>
<path style=" stroke:none;fill-rule:nonzero;fill:rgb(0%,0%,0%);fill-opacity:1;" d="M 329.105469 117.855469 C 315 121.605469 295.535156 130.714844 282.5 139.644531 C 273.214844 146.070312 254.644531 164.105469 248.570312 172.679688 L 244.464844 178.570312 L 330.179688 178.570312 L 332.855469 173.570312 C 341.25 157.144531 348.929688 116.605469 343.75 115 C 342.855469 114.644531 336.070312 116.070312 329.105469 117.855469 Z M 329.105469 117.855469 "/>
<path style=" stroke:none;fill-rule:nonzero;fill:rgb(0%,0%,0%);fill-opacity:1;" d="M 78.570312 191.964844 C 78.570312 192.5 79.820312 195 81.429688 197.320312 L 84.285156 201.785156 L 200 201.785156 C 324.644531 201.785156 316.964844 202.320312 322.144531 193.214844 C 323.214844 191.605469 298.394531 191.070312 201.070312 191.070312 C 133.75 191.070312 78.570312 191.429688 78.570312 191.964844 Z M 78.570312 191.964844 "/>
<path style=" stroke:none;fill-rule:nonzero;fill:rgb(0%,0%,0%);fill-opacity:1;" d="M 99.105469 217.855469 L 104.285156 223.214844 L 297.679688 223.214844 L 301.429688 219.105469 C 303.570312 216.785156 305.355469 214.464844 305.355469 213.75 C 305.355469 213.035156 257.855469 212.5 199.644531 212.5 L 93.929688 212.5 Z M 99.105469 217.855469 "/>
<path style=" stroke:none;fill-rule:nonzero;fill:rgb(0%,0%,0%);fill-opacity:1;" d="M 125 237.5 C 135 245.714844 157.855469 255.355469 173.75 258.214844 L 180.535156 259.285156 L 180 247.144531 L 179.464844 234.820312 L 150 234.464844 L 120.535156 233.929688 Z M 125 237.5 "/>
<path style=" stroke:none;fill-rule:nonzero;fill:rgb(0%,0%,0%);fill-opacity:1;" d="M 183.929688 236.070312 C 183.929688 238.75 193.75 254.105469 198.035156 257.855469 C 201.25 260.714844 201.605469 260.535156 207.5 252.320312 C 213.75 243.75 217.855469 236.785156 217.855469 235 C 217.855469 234.464844 210.179688 233.929688 200.894531 233.929688 C 189.105469 233.929688 183.929688 234.644531 183.929688 236.070312 Z M 183.929688 236.070312 "/>
<path style=" stroke:none;fill-rule:nonzero;fill:rgb(0%,0%,0%);fill-opacity:1;" d="M 222.679688 235.179688 C 221.964844 235.714844 221.429688 241.429688 221.429688 247.855469 L 221.429688 259.285156 L 229.105469 258.035156 C 240.179688 256.070312 257.855469 249.105469 269.820312 241.785156 C 275.714844 238.394531 280.355469 235.179688 280.355469 234.644531 C 280.355469 233.394531 223.929688 233.75 222.679688 235.179688 Z M 222.679688 235.179688 "/>
<path style=" stroke:none;fill-rule:nonzero;fill:rgb(0%,0%,0%);fill-opacity:1;" d="M 151.785156 284.820312 C 151.785156 294.464844 151.785156 294.464844 147.144531 292.855469 C 128.214844 285.535156 108.570312 300.894531 111.429688 320.535156 C 112.5 326.605469 114.285156 329.820312 119.820312 334.644531 C 123.570312 338.214844 128.214844 341.070312 130 341.25 C 131.605469 341.25 134.285156 341.605469 135.894531 341.964844 C 137.320312 342.144531 141.605469 341.429688 145.179688 340.179688 C 148.75 338.929688 151.785156 338.570312 151.785156 339.464844 C 151.785156 340.355469 154.644531 341.070312 158.035156 341.070312 L 164.285156 341.070312 L 164.285156 275 L 151.785156 275 Z M 147.144531 307.320312 C 152.320312 313.394531 152.855469 316.25 149.644531 321.964844 C 145 330.894531 135.894531 332.855469 127.855469 326.605469 C 121.605469 321.605469 121.429688 312.320312 127.679688 306.25 C 133.929688 300 141.25 300.355469 147.144531 307.320312 Z M 147.144531 307.320312 "/>
<path style=" stroke:none;fill-rule:nonzero;fill:rgb(0%,0%,0%);fill-opacity:1;" d="M 170 280.714844 C 170.535156 285.894531 171.070312 286.605469 175.894531 286.605469 C 180.714844 286.605469 181.25 285.894531 181.785156 280.714844 C 182.320312 275.179688 182.144531 275 175.894531 275 C 169.644531 275 169.464844 275.179688 170 280.714844 Z M 170 280.714844 "/>
<path style=" stroke:none;fill-rule:nonzero;fill:rgb(0%,0%,0%);fill-opacity:1;" d="M 226.785156 284.820312 C 226.785156 294.105469 226.605469 294.644531 223.394531 292.855469 C 213.394531 287.679688 196.429688 293.214844 190.714844 303.75 C 182.144531 319.820312 193.214844 341.25 210 341.070312 C 212.855469 341.070312 220.535156 341.070312 227.320312 341.070312 L 239.285156 341.070312 L 239.285156 275 L 226.785156 275 Z M 222.144531 305.535156 C 225.714844 308.394531 226.785156 310.714844 226.785156 316.070312 C 226.785156 321.429688 225.714844 323.75 222.144531 326.605469 C 219.464844 328.75 215.535156 330.355469 213.394531 330.355469 C 211.25 330.355469 207.320312 328.75 204.644531 326.605469 C 201.070312 323.75 200 321.429688 200 316.070312 C 200 310.714844 201.070312 308.394531 204.644531 305.535156 C 207.320312 303.394531 211.25 301.785156 213.394531 301.785156 C 215.535156 301.785156 219.464844 303.394531 222.144531 305.535156 Z M 222.144531 305.535156 "/>
<path style=" stroke:none;fill-rule:nonzero;fill:rgb(0%,0%,0%);fill-opacity:1;" d="M 337.5 275.714844 C 337.5 276.070312 339.105469 276.785156 341.070312 277.320312 C 343.035156 277.855469 344.285156 277.5 343.570312 276.605469 C 342.679688 275 337.5 274.285156 337.5 275.714844 Z M 337.5 275.714844 "/>
<path style=" stroke:none;fill-rule:nonzero;fill:rgb(0%,0%,0%);fill-opacity:1;" d="M 337.5 281.25 C 337.5 282.679688 338.394531 283.929688 339.285156 283.929688 C 340.355469 283.929688 341.070312 282.679688 341.070312 281.25 C 341.070312 279.820312 340.355469 278.570312 339.285156 278.570312 C 338.394531 278.570312 337.5 279.820312 337.5 281.25 Z M 337.5 281.25 "/>
<path style=" stroke:none;fill-rule:nonzero;fill:rgb(0%,0%,0%);fill-opacity:1;" d="M 66.605469 294.644531 C 51.785156 303.570312 49.820312 322.679688 62.5 334.820312 C 68.929688 340.894531 79.464844 343.214844 88.214844 340.179688 C 91.785156 338.929688 94.644531 338.570312 94.644531 339.464844 C 94.644531 340.355469 97.5 341.070312 100.894531 341.070312 L 107.144531 341.070312 L 107.144531 291.070312 L 100.894531 291.070312 C 97.5 291.070312 94.644531 291.785156 94.644531 292.855469 C 94.644531 293.929688 93.035156 293.929688 90 292.855469 C 82.855469 290 72.855469 290.714844 66.605469 294.644531 Z M 87.679688 304.105469 C 95.355469 310 96.605469 319.644531 90.179688 325.894531 C 84.464844 331.785156 76.25 331.785156 70.535156 325.894531 C 67.679688 323.214844 66.070312 319.464844 66.070312 316.070312 C 66.070312 305.355469 79.644531 297.855469 87.679688 304.105469 Z M 87.679688 304.105469 "/>
<path style=" stroke:none;fill-rule:nonzero;fill:rgb(0%,0%,0%);fill-opacity:1;" d="M 169.644531 316.070312 L 169.644531 341.070312 L 182.144531 341.070312 L 182.144531 291.070312 L 169.644531 291.070312 Z M 169.644531 316.070312 "/>
<path style=" stroke:none;fill-rule:nonzero;fill:rgb(0%,0%,0%);fill-opacity:1;" d="M 255.714844 294.644531 C 251.964844 296.964844 248.394531 301.429688 246.070312 306.605469 C 242.855469 313.75 242.679688 315.714844 244.644531 321.964844 C 248.929688 336.785156 263.570312 345 276.964844 340.355469 C 280.894531 338.929688 283.929688 338.570312 283.929688 339.464844 C 283.929688 340.355469 286.785156 341.070312 290.179688 341.070312 L 296.429688 341.070312 L 296.429688 291.070312 L 290.179688 291.070312 C 286.785156 291.070312 283.929688 291.964844 283.929688 292.855469 C 283.929688 294.105469 282.855469 294.105469 280.535156 292.855469 C 274.820312 289.820312 262.144531 290.714844 255.714844 294.644531 Z M 279.464844 306.25 C 282.320312 308.929688 283.929688 312.679688 283.929688 316.070312 C 283.929688 322.5 277.144531 330.355469 271.605469 330.355469 C 263.035156 330.355469 255.355469 323.035156 255.355469 315 C 255.355469 310.535156 265.355469 301.785156 270.535156 301.785156 C 273.035156 301.785156 277.144531 303.75 279.464844 306.25 Z M 279.464844 306.25 "/>
<path style=" stroke:none;fill-rule:nonzero;fill:rgb(0%,0%,0%);fill-opacity:1;" d="M 311.070312 292.855469 C 305.535156 295.179688 301.25 305.535156 303.570312 311.429688 C 305.535156 316.785156 310.355469 319.644531 322.320312 322.144531 C 329.285156 323.75 331.25 325 331.25 327.679688 C 331.25 333.035156 318.929688 333.75 315.714844 328.75 C 312.855469 324.105469 301.785156 323.394531 301.785156 327.855469 C 301.785156 332.144531 311.605469 341.070312 316.785156 341.25 C 331.25 341.964844 335.355469 341.25 340 336.964844 C 351.605469 326.964844 345.894531 313.929688 328.75 310.714844 C 317.144531 308.570312 313.394531 306.070312 316.25 302.5 C 319.285156 298.75 328.214844 299.464844 330.714844 303.570312 C 332.320312 305.894531 335 307.144531 338.75 307.144531 C 346.25 307.144531 346.25 304.820312 338.570312 297.144531 C 333.214844 291.785156 331.429688 291.070312 323.929688 291.25 C 319.105469 291.25 313.394531 291.964844 311.070312 292.855469 Z M 311.070312 292.855469 "/>
</g>
</svg>
