<?xml version="1.0" encoding="UTF-8"?>
<svg xmlns="http://www.w3.org/2000/svg" xmlns:xlink="http://www.w3.org/1999/xlink" width="800px" height="601px" viewBox="0 0 800 601" version="1.1">
<g id="surface1">
<path style=" stroke:none;fill-rule:nonzero;fill:rgb(0%,0%,0%);fill-opacity:1;" d="M 481.996094 101.183594 C 481.996094 106.542969 482.269531 110.886719 482.734375 110.886719 C 488.273438 110.976562 500.921875 113.195312 504.0625 114.765625 C 510.710938 118 512.097656 125.117188 507.292969 131.953125 C 506.464844 133.15625 485.78125 181.574219 461.21875 239.421875 C 436.75 297.359375 416.34375 344.855469 415.972656 344.945312 C 415.511719 345.039062 409.789062 333.304688 403.230469 318.796875 L 391.320312 292.460938 L 392.890625 287.839844 C 394.828125 282.203125 421.421875 209.757812 430.472656 185.269531 C 434.070312 175.570312 437.488281 166.605469 438.226562 165.21875 C 441.089844 159.675781 450.046875 155.515625 460.757812 154.683594 C 473.222656 153.667969 472.207031 154.410156 475.898438 144.796875 C 477.746094 140.085938 479.222656 135.925781 479.222656 135.558594 C 479.222656 135.1875 455.402344 134.910156 426.316406 134.910156 L 373.40625 134.910156 L 370.175781 143.875 C 368.328125 148.863281 367.035156 153.207031 367.21875 153.578125 C 367.40625 154.039062 369.4375 154.316406 371.652344 154.316406 C 379.777344 154.316406 385.964844 158.660156 385.964844 164.296875 C 385.964844 166.234375 383.75 172.796875 372.113281 205.136719 C 367.496094 218.074219 363.34375 229.070312 362.972656 229.441406 C 362.605469 229.808594 352.632812 209.203125 340.8125 183.699219 C 328.992188 158.105469 318.375 135.742188 317.175781 133.988281 C 311.449219 125.023438 313.664062 121.050781 325.300781 119.664062 L 330.65625 119.015625 L 330.378906 108.207031 L 330.101562 97.488281 L 278.671875 97.210938 L 227.148438 97.023438 L 227.148438 119.015625 L 233.332031 119.664062 C 247 120.957031 256.324219 124.652344 260.757812 130.566406 C 261.957031 132.140625 268.144531 144.519531 274.515625 158.011719 C 286.148438 182.777344 325.300781 266.21875 334.257812 285.34375 L 339.152344 295.695312 L 321.515625 343.097656 C 311.820312 369.0625 303.601562 391.519531 303.230469 392.90625 C 302.308594 397.15625 296.398438 401.589844 288.273438 404.179688 C 280.054688 406.765625 271.191406 408.058594 255.585938 408.890625 L 244.78125 409.539062 L 241.457031 417.945312 C 239.703125 422.660156 238.226562 426.726562 238.226562 427.09375 C 238.226562 427.554688 304.246094 427.832031 385.042969 427.832031 C 467.589844 427.832031 531.855469 427.464844 531.855469 427.003906 C 531.855469 426.632812 540.8125 407.226562 551.707031 383.941406 C 562.605469 360.746094 571.558594 341.527344 571.558594 341.34375 C 571.558594 341.15625 566.851562 340.972656 561.21875 340.972656 L 550.785156 340.972656 L 545.335938 352.152344 C 531.117188 381.261719 513.941406 400.203125 495.660156 406.765625 L 489.84375 408.890625 L 419.761719 409.167969 C 381.164062 409.261719 349.121094 409.261719 348.570312 408.984375 C 347.832031 408.707031 350.785156 399.742188 357.15625 382.554688 C 365.929688 359.175781 367.035156 356.683594 368.144531 358.160156 C 368.882812 359.175781 372.761719 366.660156 376.824219 374.886719 L 384.304688 389.949219 L 422.621094 389.949219 L 423.730469 387.359375 C 425.117188 384.496094 455.492188 313.160156 474.609375 267.972656 C 507.941406 189.246094 532.226562 132.324219 533.796875 129.183594 C 539.058594 118.832031 548.753906 113.472656 566.296875 111.347656 L 570.636719 110.792969 L 570.636719 91.480469 L 481.996094 91.480469 Z M 481.996094 101.183594 "/>
<path style=" stroke:none;fill-rule:nonzero;fill:rgb(0%,0%,0%);fill-opacity:1;" d="M 535.550781 487.15625 L 535.550781 506.378906 L 540.167969 506.378906 L 540.167969 492.703125 L 540.257812 479.117188 L 567.773438 507.765625 L 567.867188 488.542969 L 567.867188 469.324219 L 565.835938 469.601562 C 563.710938 469.878906 563.710938 470.0625 563.710938 483.089844 C 563.710938 490.300781 563.527344 496.214844 563.25 496.214844 C 562.972656 496.304688 556.695312 489.929688 549.214844 482.167969 L 535.640625 468.03125 Z M 535.550781 487.15625 "/>
<path style=" stroke:none;fill-rule:nonzero;fill:rgb(0%,0%,0%);fill-opacity:1;" d="M 231.488281 470.0625 C 231.117188 470.339844 230.839844 478.65625 230.839844 488.542969 L 230.839844 506.378906 L 238.6875 506.378906 C 245.890625 506.378906 246.539062 506.191406 246.539062 504.53125 C 246.539062 502.867188 245.890625 502.679688 240.996094 502.679688 L 235.457031 502.679688 L 235.457031 486.046875 C 235.457031 470.523438 235.363281 469.414062 233.796875 469.414062 C 232.871094 469.414062 231.761719 469.691406 231.488281 470.0625 Z M 231.488281 470.0625 "/>
<path style=" stroke:none;fill-rule:nonzero;fill:rgb(0%,0%,0%);fill-opacity:1;" d="M 257.710938 471.542969 C 255.492188 472.648438 252.445312 475.421875 250.785156 477.640625 C 248.199219 481.242188 247.921875 482.261719 247.921875 488.359375 C 247.921875 494.363281 248.199219 495.566406 250.691406 499.078125 C 254.847656 504.992188 260.296875 507.488281 267.867188 507.117188 C 274.976562 506.746094 279.222656 504.4375 282.917969 498.707031 C 289.105469 489.097656 285.226562 475.882812 274.792969 470.894531 C 270.175781 468.675781 262.417969 468.953125 257.710938 471.542969 Z M 275.347656 475.976562 C 278.484375 478.285156 281.53125 484.292969 281.625 488.265625 C 281.625 492.332031 278.117188 498.894531 274.882812 500.832031 C 269.992188 503.789062 265.558594 504.066406 260.664062 501.574219 C 253.738281 498.152344 250.96875 492.515625 252.445312 484.664062 C 253.277344 480.503906 257.800781 475.238281 261.679688 474.035156 C 265.835938 472.835938 272.113281 473.667969 275.347656 475.976562 Z M 275.347656 475.976562 "/>
<path style=" stroke:none;fill-rule:nonzero;fill:rgb(0%,0%,0%);fill-opacity:1;" d="M 289.933594 482.8125 C 289.933594 497.414062 290.675781 500.554688 294.921875 504.4375 C 298.429688 507.671875 306.1875 508.226562 310.527344 505.546875 C 315.882812 502.21875 316.710938 499.261719 316.710938 483.277344 C 316.710938 469.324219 316.710938 469.324219 314.679688 469.601562 C 312.648438 469.878906 312.558594 470.246094 312.097656 484.292969 C 311.726562 496.582031 311.355469 499.078125 309.972656 500.648438 C 307.664062 503.234375 304.246094 503.882812 300.371094 502.589844 C 295.476562 501.019531 294.550781 497.785156 294.550781 482.351562 L 294.550781 469.414062 L 289.933594 469.414062 Z M 289.933594 482.8125 "/>
<path style=" stroke:none;fill-rule:nonzero;fill:rgb(0%,0%,0%);fill-opacity:1;" d="M 323.175781 487.898438 L 323.175781 506.378906 L 327.792969 506.378906 L 327.792969 469.414062 L 323.175781 469.414062 Z M 323.175781 487.898438 "/>
<path style=" stroke:none;fill-rule:nonzero;fill:rgb(0%,0%,0%);fill-opacity:1;" d="M 338.136719 471.726562 C 331.671875 477.179688 333.703125 483.460938 343.582031 488.359375 C 350.878906 492.054688 352.632812 494.640625 350.691406 498.800781 C 350.046875 500.09375 348.382812 501.851562 347 502.679688 C 344.691406 503.882812 344.136719 503.882812 341.921875 502.679688 C 340.535156 501.851562 338.875 500.1875 338.226562 498.984375 C 337.582031 497.691406 336.65625 496.675781 336.101562 496.765625 C 333.609375 497.042969 333.332031 497.230469 333.332031 499.078125 C 333.332031 500.1875 334.71875 502.402344 336.472656 504.160156 C 339.058594 506.746094 340.257812 507.300781 343.675781 507.300781 C 350.96875 507.300781 355.585938 503.144531 355.679688 496.398438 C 355.769531 491.039062 353.554688 488.175781 346.722656 484.941406 C 339.425781 481.613281 338.226562 480.320312 339.425781 476.992188 C 340.71875 473.296875 345.523438 472.1875 348.9375 474.773438 C 351.246094 476.53125 351.800781 476.53125 353.277344 475.328125 C 354.941406 474.128906 354.941406 473.945312 352.445312 471.726562 C 348.753906 468.492188 342.011719 468.492188 338.136719 471.726562 Z M 338.136719 471.726562 "/>
<path style=" stroke:none;fill-rule:nonzero;fill:rgb(0%,0%,0%);fill-opacity:1;" d="M 372.113281 470.433594 C 372.113281 470.988281 375.53125 479.765625 379.6875 489.929688 C 385.320312 503.699219 387.441406 507.949219 388.089844 506.839844 C 389.84375 503.699219 402.585938 471.816406 402.585938 470.617188 C 402.585938 469.785156 401.847656 469.414062 400.554688 469.601562 C 398.890625 469.785156 397.597656 472.1875 393.351562 482.539062 C 390.488281 489.46875 387.996094 495.472656 387.628906 495.75 C 387.351562 496.027344 384.671875 490.300781 381.71875 483.089844 C 377.191406 472.1875 375.898438 469.785156 374.144531 469.601562 C 373.039062 469.414062 372.113281 469.785156 372.113281 470.433594 Z M 372.113281 470.433594 "/>
<path style=" stroke:none;fill-rule:nonzero;fill:rgb(0%,0%,0%);fill-opacity:1;" d="M 406.277344 483.277344 C 406.277344 499.261719 407.109375 502.21875 412.1875 505.453125 C 416.804688 508.226562 424.46875 507.765625 428.070312 504.4375 C 432.316406 500.554688 433.054688 497.414062 433.054688 482.8125 C 433.054688 469.324219 433.054688 469.324219 431.023438 469.601562 C 428.992188 469.878906 428.902344 470.246094 428.441406 483.738281 C 428.164062 492.238281 427.515625 498.339844 426.871094 499.632812 C 425.390625 502.035156 420.222656 503.882812 417.082031 503.144531 C 412.003906 501.851562 411.355469 500 410.894531 484.292969 C 410.433594 470.246094 410.339844 469.878906 408.402344 469.601562 C 406.277344 469.324219 406.277344 469.324219 406.277344 483.277344 Z M 406.277344 483.277344 "/>
<path style=" stroke:none;fill-rule:nonzero;fill:rgb(0%,0%,0%);fill-opacity:1;" d="M 439.519531 487.804688 L 439.519531 506.378906 L 444.136719 506.378906 L 443.953125 488.082031 C 443.675781 469.96875 443.675781 469.878906 441.644531 469.601562 L 439.519531 469.324219 Z M 439.519531 487.804688 "/>
<path style=" stroke:none;fill-rule:nonzero;fill:rgb(0%,0%,0%);fill-opacity:1;" d="M 447.832031 471.726562 C 447.832031 473.851562 448.199219 474.035156 451.984375 474.035156 L 456.140625 474.035156 L 456.140625 506.378906 L 460.757812 506.378906 L 460.757812 474.035156 L 478.300781 474.035156 L 478.300781 506.378906 L 482.917969 506.378906 L 482.917969 474.035156 L 487.628906 474.035156 C 491.964844 474.035156 492.242188 473.851562 491.964844 471.910156 L 491.691406 469.878906 L 469.804688 469.691406 L 447.832031 469.414062 Z M 447.832031 471.726562 "/>
<path style=" stroke:none;fill-rule:nonzero;fill:rgb(0%,0%,0%);fill-opacity:1;" d="M 504.617188 470.710938 C 498.339844 473.480469 493.167969 481.519531 493.074219 488.449219 C 493.074219 493.8125 497.046875 501.296875 501.660156 504.34375 C 504.894531 506.46875 506.371094 506.839844 512.464844 506.839844 C 518.746094 506.839844 519.945312 506.5625 523.359375 504.160156 C 527.976562 501.019531 531.855469 493.8125 531.855469 488.449219 C 531.761719 481.429688 525.945312 472.835938 519.574219 470.433594 C 515.972656 469.046875 507.941406 469.230469 504.617188 470.710938 Z M 521.328125 476.347656 C 527.976562 481.429688 528.902344 492.332031 523.269531 498.429688 C 512.925781 509.335938 495.566406 500.277344 498.0625 485.308594 C 498.800781 480.6875 501.199219 477.640625 506.09375 475.144531 C 511.171875 472.464844 516.898438 472.925781 521.328125 476.347656 Z M 521.328125 476.347656 "/>
</g>
</svg>
