<?xml version="1.0" encoding="UTF-8"?>
<svg xmlns="http://www.w3.org/2000/svg" xmlns:xlink="http://www.w3.org/1999/xlink" width="400px" height="300px" viewBox="0 0 399 300" version="1.1">
<g id="surface1">
<path style=" stroke:none;fill-rule:nonzero;fill:rgb(0%,0%,0%);fill-opacity:1;" d="M 240.394531 50.507812 C 240.394531 53.183594 240.53125 55.351562 240.761719 55.351562 C 243.527344 55.398438 249.835938 56.503906 251.402344 57.289062 C 254.71875 58.902344 255.40625 62.453125 253.011719 65.867188 C 252.597656 66.464844 242.28125 90.636719 230.03125 119.511719 C 217.828125 148.433594 207.652344 172.140625 207.46875 172.1875 C 207.238281 172.234375 204.382812 166.375 201.113281 159.132812 L 195.171875 145.988281 L 195.953125 143.679688 C 196.921875 140.867188 210.183594 104.703125 214.699219 92.480469 C 216.492188 87.636719 218.199219 83.164062 218.566406 82.472656 C 219.992188 79.703125 224.460938 77.628906 229.800781 77.214844 C 236.019531 76.707031 235.511719 77.074219 237.355469 72.277344 C 238.277344 69.925781 239.011719 67.851562 239.011719 67.667969 C 239.011719 67.480469 227.132812 67.34375 212.625 67.34375 L 186.238281 67.34375 L 184.625 71.816406 C 183.703125 74.308594 183.058594 76.476562 183.152344 76.660156 C 183.242188 76.890625 184.257812 77.03125 185.363281 77.03125 C 189.414062 77.03125 192.5 79.199219 192.5 82.011719 C 192.5 82.980469 191.394531 86.253906 185.59375 102.398438 C 183.289062 108.855469 181.21875 114.34375 181.03125 114.53125 C 180.847656 114.714844 175.875 104.429688 169.980469 91.699219 C 164.085938 78.921875 158.789062 67.757812 158.191406 66.882812 C 155.335938 62.40625 156.441406 60.425781 162.242188 59.734375 L 164.914062 59.410156 L 164.777344 54.011719 L 164.636719 48.664062 L 138.988281 48.523438 L 113.289062 48.433594 L 113.289062 59.410156 L 116.375 59.734375 C 123.191406 60.378906 127.84375 62.222656 130.050781 65.175781 C 130.652344 65.960938 133.738281 72.140625 136.914062 78.875 C 142.71875 91.234375 162.242188 132.886719 166.710938 142.433594 L 169.152344 147.601562 L 160.355469 171.265625 C 155.519531 184.226562 151.421875 195.433594 151.238281 196.125 C 150.777344 198.246094 147.828125 200.460938 143.777344 201.753906 C 139.675781 203.042969 135.257812 203.691406 127.472656 204.105469 L 122.085938 204.429688 L 120.425781 208.625 C 119.550781 210.976562 118.816406 213.007812 118.816406 213.191406 C 118.816406 213.421875 151.742188 213.5625 192.039062 213.5625 C 233.210938 213.5625 265.261719 213.375 265.261719 213.144531 C 265.261719 212.960938 269.730469 203.273438 275.164062 191.652344 C 280.597656 180.074219 285.066406 170.480469 285.066406 170.386719 C 285.066406 170.296875 282.71875 170.203125 279.90625 170.203125 L 274.703125 170.203125 L 271.988281 175.785156 C 264.894531 190.3125 256.328125 199.769531 247.210938 203.042969 L 244.308594 204.105469 L 209.355469 204.242188 C 190.105469 204.289062 174.125 204.289062 173.847656 204.152344 C 173.480469 204.011719 174.953125 199.539062 178.132812 190.960938 C 182.507812 179.289062 183.058594 178.042969 183.613281 178.78125 C 183.980469 179.289062 185.914062 183.027344 187.941406 187.132812 L 191.671875 194.648438 L 210.78125 194.648438 L 211.335938 193.359375 C 212.027344 191.929688 227.175781 156.320312 236.710938 133.765625 C 253.335938 94.464844 265.449219 66.050781 266.230469 64.484375 C 268.855469 59.316406 273.691406 56.640625 282.441406 55.582031 L 284.605469 55.304688 L 284.605469 45.664062 L 240.394531 45.664062 Z M 240.394531 50.507812 "/>
<path style=" stroke:none;fill-rule:nonzero;fill:rgb(0%,0%,0%);fill-opacity:1;" d="M 267.105469 243.171875 L 267.105469 252.765625 L 269.40625 252.765625 L 269.40625 245.941406 L 269.453125 239.160156 L 276.316406 246.308594 L 283.175781 253.460938 L 283.222656 243.867188 L 283.222656 234.269531 L 282.210938 234.410156 C 281.152344 234.546875 281.152344 234.640625 281.152344 241.144531 C 281.152344 244.742188 281.058594 247.695312 280.921875 247.695312 C 280.78125 247.738281 277.652344 244.558594 273.921875 240.683594 L 267.152344 233.625 Z M 267.105469 243.171875 "/>
<path style=" stroke:none;fill-rule:nonzero;fill:rgb(0%,0%,0%);fill-opacity:1;" d="M 115.453125 234.640625 C 115.269531 234.777344 115.132812 238.929688 115.132812 243.867188 L 115.132812 252.765625 L 119.046875 252.765625 C 122.636719 252.765625 122.960938 252.675781 122.960938 251.84375 C 122.960938 251.015625 122.636719 250.921875 120.199219 250.921875 L 117.433594 250.921875 L 117.433594 242.621094 C 117.433594 234.871094 117.386719 234.316406 116.605469 234.316406 C 116.144531 234.316406 115.59375 234.457031 115.453125 234.640625 Z M 115.453125 234.640625 "/>
<path style=" stroke:none;fill-rule:nonzero;fill:rgb(0%,0%,0%);fill-opacity:1;" d="M 128.53125 235.378906 C 127.425781 235.933594 125.90625 237.316406 125.078125 238.421875 C 123.789062 240.222656 123.652344 240.730469 123.652344 243.773438 C 123.652344 246.769531 123.789062 247.371094 125.03125 249.125 C 127.105469 252.074219 129.824219 253.320312 133.597656 253.136719 C 137.144531 252.953125 139.261719 251.800781 141.105469 248.9375 C 144.191406 244.140625 142.257812 237.546875 137.050781 235.054688 C 134.75 233.949219 130.882812 234.085938 128.53125 235.378906 Z M 137.328125 237.59375 C 138.894531 238.746094 140.414062 241.742188 140.460938 243.726562 C 140.460938 245.757812 138.710938 249.03125 137.097656 250 C 134.65625 251.476562 132.449219 251.613281 130.007812 250.367188 C 126.550781 248.664062 125.171875 245.847656 125.90625 241.929688 C 126.324219 239.851562 128.578125 237.222656 130.511719 236.625 C 132.585938 236.023438 135.71875 236.4375 137.328125 237.59375 Z M 137.328125 237.59375 "/>
<path style=" stroke:none;fill-rule:nonzero;fill:rgb(0%,0%,0%);fill-opacity:1;" d="M 144.605469 241.003906 C 144.605469 248.292969 144.972656 249.863281 147.09375 251.800781 C 148.84375 253.414062 152.710938 253.691406 154.875 252.351562 C 157.546875 250.691406 157.960938 249.214844 157.960938 241.234375 C 157.960938 234.269531 157.960938 234.269531 156.949219 234.410156 C 155.933594 234.546875 155.886719 234.734375 155.65625 241.742188 C 155.472656 247.878906 155.289062 249.125 154.597656 249.90625 C 153.449219 251.199219 151.742188 251.523438 149.808594 250.875 C 147.367188 250.09375 146.90625 248.476562 146.90625 240.773438 L 146.90625 234.316406 L 144.605469 234.316406 Z M 144.605469 241.003906 "/>
<path style=" stroke:none;fill-rule:nonzero;fill:rgb(0%,0%,0%);fill-opacity:1;" d="M 161.183594 243.542969 L 161.183594 252.765625 L 163.488281 252.765625 L 163.488281 234.316406 L 161.183594 234.316406 Z M 161.183594 243.542969 "/>
<path style=" stroke:none;fill-rule:nonzero;fill:rgb(0%,0%,0%);fill-opacity:1;" d="M 168.644531 235.46875 C 165.421875 238.191406 166.433594 241.328125 171.363281 243.773438 C 175 245.617188 175.875 246.910156 174.90625 248.984375 C 174.585938 249.632812 173.757812 250.507812 173.066406 250.921875 C 171.914062 251.523438 171.636719 251.523438 170.53125 250.921875 C 169.84375 250.507812 169.011719 249.675781 168.691406 249.078125 C 168.367188 248.433594 167.90625 247.925781 167.632812 247.96875 C 166.386719 248.109375 166.25 248.199219 166.25 249.125 C 166.25 249.675781 166.941406 250.785156 167.816406 251.660156 C 169.105469 252.953125 169.703125 253.230469 171.40625 253.230469 C 175.046875 253.230469 177.347656 251.152344 177.394531 247.785156 C 177.441406 245.109375 176.335938 243.679688 172.925781 242.066406 C 169.289062 240.40625 168.691406 239.761719 169.289062 238.101562 C 169.933594 236.253906 172.328125 235.699219 174.03125 236.992188 C 175.183594 237.867188 175.460938 237.867188 176.199219 237.269531 C 177.027344 236.667969 177.027344 236.578125 175.78125 235.46875 C 173.941406 233.855469 170.578125 233.855469 168.644531 235.46875 Z M 168.644531 235.46875 "/>
<path style=" stroke:none;fill-rule:nonzero;fill:rgb(0%,0%,0%);fill-opacity:1;" d="M 185.59375 234.824219 C 185.59375 235.101562 187.296875 239.484375 189.367188 244.558594 C 192.175781 251.429688 193.238281 253.550781 193.558594 253 C 194.433594 251.429688 200.789062 235.515625 200.789062 234.917969 C 200.789062 234.5 200.421875 234.316406 199.777344 234.410156 C 198.949219 234.5 198.300781 235.699219 196.183594 240.867188 C 194.757812 244.328125 193.511719 247.324219 193.328125 247.464844 C 193.191406 247.601562 191.855469 244.742188 190.382812 241.144531 C 188.125 235.699219 187.480469 234.5 186.605469 234.410156 C 186.050781 234.316406 185.59375 234.5 185.59375 234.824219 Z M 185.59375 234.824219 "/>
<path style=" stroke:none;fill-rule:nonzero;fill:rgb(0%,0%,0%);fill-opacity:1;" d="M 202.632812 241.234375 C 202.632812 249.214844 203.046875 250.691406 205.578125 252.304688 C 207.882812 253.691406 211.703125 253.460938 213.5 251.800781 C 215.617188 249.863281 215.988281 248.292969 215.988281 241.003906 C 215.988281 234.269531 215.988281 234.269531 214.972656 234.410156 C 213.960938 234.546875 213.914062 234.734375 213.683594 241.464844 C 213.546875 245.710938 213.222656 248.753906 212.902344 249.398438 C 212.164062 250.601562 209.585938 251.523438 208.019531 251.152344 C 205.488281 250.507812 205.164062 249.585938 204.933594 241.742188 C 204.703125 234.734375 204.65625 234.546875 203.691406 234.410156 C 202.632812 234.269531 202.632812 234.269531 202.632812 241.234375 Z M 202.632812 241.234375 "/>
<path style=" stroke:none;fill-rule:nonzero;fill:rgb(0%,0%,0%);fill-opacity:1;" d="M 219.210938 243.496094 L 219.210938 252.765625 L 221.511719 252.765625 L 221.421875 243.632812 C 221.28125 234.59375 221.28125 234.546875 220.269531 234.410156 L 219.210938 234.269531 Z M 219.210938 243.496094 "/>
<path style=" stroke:none;fill-rule:nonzero;fill:rgb(0%,0%,0%);fill-opacity:1;" d="M 223.355469 235.46875 C 223.355469 236.53125 223.539062 236.625 225.425781 236.625 L 227.5 236.625 L 227.5 252.765625 L 229.800781 252.765625 L 229.800781 236.625 L 238.550781 236.625 L 238.550781 252.765625 L 240.855469 252.765625 L 240.855469 236.625 L 243.203125 236.625 C 245.367188 236.625 245.507812 236.53125 245.367188 235.5625 L 245.230469 234.546875 L 234.316406 234.457031 L 223.355469 234.316406 Z M 223.355469 235.46875 "/>
<path style=" stroke:none;fill-rule:nonzero;fill:rgb(0%,0%,0%);fill-opacity:1;" d="M 251.675781 234.964844 C 248.546875 236.347656 245.96875 240.359375 245.921875 243.820312 C 245.921875 246.496094 247.902344 250.230469 250.203125 251.753906 C 251.816406 252.8125 252.550781 253 255.59375 253 C 258.722656 253 259.324219 252.859375 261.027344 251.660156 C 263.328125 250.09375 265.261719 246.496094 265.261719 243.820312 C 265.21875 240.3125 262.316406 236.023438 259.136719 234.824219 C 257.34375 234.132812 253.335938 234.226562 251.675781 234.964844 Z M 260.011719 237.777344 C 263.328125 240.3125 263.789062 245.757812 260.980469 248.800781 C 255.824219 254.242188 247.164062 249.722656 248.40625 242.25 C 248.777344 239.945312 249.972656 238.421875 252.414062 237.175781 C 254.949219 235.839844 257.800781 236.070312 260.011719 237.777344 Z M 260.011719 237.777344 "/>
</g>
</svg>
