<?xml version="1.0" encoding="UTF-8"?>
<svg xmlns="http://www.w3.org/2000/svg" xmlns:xlink="http://www.w3.org/1999/xlink" width="450px" height="253px" viewBox="0 0 449 253" version="1.1">
<g id="surface1">
<path style=" stroke:none;fill-rule:nonzero;fill:rgb(0%,0%,0%);fill-opacity:1;" d="M 223.203125 58.753906 C 222.816406 59.210938 222.324219 59.875 222.113281 60.261719 C 221.800781 60.894531 215.308594 77.445312 210.398438 90.132812 C 208.714844 94.453125 208.1875 95.753906 207.136719 98.214844 C 206.890625 98.777344 205.382812 102.535156 203.804688 106.542969 C 199.101562 118.558594 196.542969 123.230469 192.507812 127.0625 C 190.929688 128.574219 189.597656 129.453125 187.84375 130.191406 C 184.40625 131.59375 183.25 132.753906 184.722656 133.316406 C 185.003906 133.421875 190.71875 133.527344 197.382812 133.527344 C 207.699219 133.5625 209.625 133.457031 210.046875 133.035156 C 210.820312 132.296875 210.152344 131.628906 207.90625 130.820312 C 205.3125 129.910156 202.714844 127.273438 201.945312 124.742188 C 200.890625 121.40625 201.101562 118.875 202.75 114.832031 C 204.332031 111.003906 204.46875 110.828125 206.996094 110.582031 C 209.800781 110.265625 226.042969 110.265625 229.164062 110.582031 C 230.917969 110.722656 231.726562 110.96875 232.253906 111.53125 C 232.882812 112.199219 234.496094 115.921875 237.128906 122.703125 C 238.179688 125.410156 238.144531 128.046875 237.058594 129.207031 C 235.691406 130.679688 234.355469 131.136719 230.988281 131.347656 C 229.234375 131.417969 227.375 131.734375 226.816406 132.050781 C 225.832031 132.542969 225.796875 132.578125 226.429688 133.035156 C 226.816406 133.316406 227.972656 133.527344 229.199219 133.527344 C 230.394531 133.527344 238.425781 133.527344 247.125 133.527344 C 260.804688 133.492188 262.980469 133.421875 263.4375 132.964844 C 263.894531 132.472656 263.894531 132.367188 263.296875 131.910156 C 262.910156 131.628906 262.277344 131.417969 261.894531 131.417969 C 260.105469 131.417969 257.261719 130.121094 255.472656 128.46875 C 253.613281 126.78125 252.527344 125.058594 251.230469 121.722656 C 250.84375 120.773438 248.703125 115.5 246.425781 109.984375 C 244.179688 104.46875 241.828125 98.777344 241.265625 97.335938 C 240.707031 95.894531 239.828125 93.75 239.339844 92.589844 C 238.847656 91.429688 238.25 89.992188 238.003906 89.429688 C 237.757812 88.832031 235.621094 83.628906 233.269531 77.832031 C 229.269531 67.957031 227.761719 64.375 226.253906 60.964844 C 225.902344 60.191406 225.238281 59.210938 224.78125 58.753906 L 223.9375 57.980469 Z M 219.519531 78.570312 C 220.324219 80.609375 222.5 85.949219 223.097656 87.320312 C 224.605469 90.835938 231.164062 107.488281 231.164062 107.804688 C 231.164062 108.121094 228.148438 108.226562 218.394531 108.226562 C 211.347656 108.226562 205.523438 108.121094 205.453125 107.945312 C 205.347656 107.804688 206.050781 105.734375 206.996094 103.308594 C 208.75 98.84375 211.378906 92.132812 211.871094 90.835938 C 212.011719 90.449219 212.292969 89.746094 212.503906 89.253906 C 212.714844 88.761719 213.835938 85.84375 215.027344 82.753906 C 216.222656 79.660156 217.378906 76.917969 217.554688 76.671875 C 218.1875 75.933594 218.675781 76.390625 219.519531 78.570312 Z M 219.519531 78.570312 "/>
<path style=" stroke:none;fill-rule:nonzero;fill:rgb(0%,0%,0%);fill-opacity:1;" d="M 403.292969 59.105469 C 402.835938 59.734375 401.222656 63.355469 399.75 67.117188 C 398.277344 70.875 396.910156 74.285156 396.734375 74.671875 C 396.59375 75.058594 396.171875 76.074219 395.855469 76.953125 C 395.539062 77.832031 395.050781 78.992188 394.804688 79.589844 C 394.558594 80.152344 393.683594 82.367188 392.875 84.507812 C 392.03125 86.617188 391.15625 88.832031 390.945312 89.429688 C 390.699219 89.992188 388.734375 94.839844 386.632812 100.144531 C 379.652344 117.503906 376.351562 124.109375 373.125 127.097656 C 371.300781 128.785156 369.023438 130.15625 367.023438 130.75 C 366.179688 130.960938 365.234375 131.488281 364.917969 131.839844 C 364.320312 132.507812 364.320312 132.542969 364.988281 133.035156 C 365.96875 133.773438 389.261719 133.773438 390.246094 133.035156 C 391.191406 132.367188 390.523438 131.664062 388.246094 130.820312 C 385.824219 129.980469 383.261719 127.625 382.457031 125.515625 C 381.476562 122.914062 381.613281 118.910156 382.878906 115.324219 C 384.386719 111.003906 384.632812 110.828125 389.226562 110.511719 C 394.382812 110.160156 411.1875 110.511719 412.097656 111.003906 C 413.394531 111.707031 418.167969 123.6875 418.203125 126.429688 C 418.238281 128.1875 417.429688 129.488281 415.640625 130.539062 C 414.730469 131.066406 413.640625 131.277344 410.765625 131.347656 C 406.132812 131.523438 404.800781 132.296875 407.609375 133.140625 C 409.503906 133.703125 442.757812 133.703125 443.84375 133.105469 L 444.582031 132.71875 L 443.808594 132.121094 C 443.386719 131.769531 442.300781 131.382812 441.386719 131.242188 C 438.019531 130.75 434.757812 128.46875 433.496094 125.796875 C 432.269531 123.160156 431.460938 121.195312 429.53125 116.484375 C 428.445312 113.78125 427.25 110.933594 426.902344 110.160156 C 426.550781 109.386719 425.53125 106.925781 424.621094 104.714844 C 423.707031 102.5 422.691406 100.039062 422.339844 99.265625 C 421.988281 98.496094 420.65625 95.261719 419.359375 92.0625 C 418.0625 88.867188 416.726562 85.632812 416.378906 84.859375 C 416.027344 84.085938 414.695312 80.855469 413.394531 77.65625 C 412.097656 74.460938 410.765625 71.226562 410.414062 70.453125 C 410.097656 69.679688 408.976562 66.976562 407.921875 64.480469 C 406.203125 60.261719 404.976562 58.050781 404.378906 58.015625 C 404.242188 57.980469 403.75 58.507812 403.292969 59.105469 Z M 400.523438 80.222656 C 401.292969 82.191406 404.101562 89.078125 406.695312 95.542969 C 409.328125 102.007812 411.464844 107.523438 411.464844 107.769531 C 411.464844 108.121094 408.976562 108.226562 398.664062 108.226562 C 384.84375 108.226562 385.402344 108.296875 386.175781 106.402344 C 386.351562 105.945312 387.578125 102.816406 388.839844 99.441406 C 391.507812 92.449219 397.363281 77.796875 397.820312 76.882812 C 398.417969 75.757812 399.082031 76.636719 400.523438 80.222656 Z M 400.523438 80.222656 "/>
<path style=" stroke:none;fill-rule:nonzero;fill:rgb(0%,0%,0%);fill-opacity:1;" d="M 6.769531 59.59375 C 6.277344 59.699219 5.964844 60.050781 5.964844 60.4375 C 5.964844 60.964844 6.3125 61.140625 7.542969 61.28125 C 8.417969 61.386719 9.855469 61.597656 10.804688 61.703125 C 15.328125 62.265625 17.679688 64.691406 19.328125 70.453125 C 20.066406 73.089844 20.066406 121.371094 19.328125 123.6875 C 17.890625 128.152344 14.59375 130.785156 9.890625 131.277344 C 7.824219 131.488281 5.964844 132.050781 5.964844 132.4375 C 5.964844 133.457031 7.050781 133.527344 27.570312 133.527344 C 45.847656 133.527344 48.371094 133.457031 48.757812 133 C 49.53125 132.050781 48.582031 131.628906 45.320312 131.382812 C 38.621094 130.925781 35.21875 127.765625 34.375 121.160156 C 34.203125 119.753906 34.027344 114.796875 34.027344 110.125 C 34.027344 102.394531 34.097656 101.621094 34.65625 101.09375 C 35.21875 100.566406 36.796875 100.496094 47.390625 100.355469 C 59.84375 100.25 61.457031 100.074219 66.648438 98.496094 C 70.261719 97.40625 74.75 94.875 76.855469 92.800781 C 83.765625 85.84375 83.730469 73.722656 76.75 66.695312 C 73.136719 63.074219 67.210938 60.824219 59.457031 60.121094 C 55.421875 59.769531 8.136719 59.3125 6.769531 59.59375 Z M 51.742188 61.492188 C 55.457031 61.949219 57.457031 62.546875 59.738281 64.023438 C 64.4375 67.046875 66.648438 72.808594 66.191406 80.820312 C 65.773438 87.742188 64.71875 90.90625 61.808594 93.75 C 57.914062 97.546875 54.511719 98.320312 42.023438 98.355469 C 34.726562 98.390625 34.726562 98.390625 34.203125 97.546875 C 33.710938 96.84375 33.675781 94.59375 33.746094 79.484375 C 33.851562 62.6875 33.886719 62.195312 34.550781 61.703125 C 35.113281 61.28125 36.515625 61.175781 41.917969 61.140625 C 45.601562 61.140625 49.988281 61.316406 51.742188 61.492188 Z M 51.742188 61.492188 "/>
<path style=" stroke:none;fill-rule:nonzero;fill:rgb(0%,0%,0%);fill-opacity:1;" d="M 91.203125 59.769531 L 90.328125 60.121094 L 91.132812 60.789062 C 91.589844 61.175781 92.746094 61.527344 93.9375 61.667969 C 97.902344 62.054688 100.253906 63.355469 102.007812 66.0625 C 104.042969 69.222656 104.007812 68.871094 104.007812 96.632812 C 104.007812 120.28125 103.972656 122.25 103.375 123.933594 C 101.972656 128.011719 99.65625 129.804688 94.605469 130.855469 C 90.675781 131.664062 89.660156 132.332031 91.167969 133.175781 C 91.625 133.386719 98.570312 133.527344 110.988281 133.527344 C 127.089844 133.527344 130.316406 133.457031 131.121094 133.035156 L 132.070312 132.507812 L 130.839844 132.015625 C 130.175781 131.734375 128.808594 131.382812 127.824219 131.242188 C 124.984375 130.855469 121.828125 129.101562 120.457031 127.097656 C 119.792969 126.148438 119.089844 124.8125 118.84375 124.109375 C 118.25 122.285156 118.003906 98.53125 118.597656 97.828125 C 118.914062 97.441406 120.351562 97.335938 125.542969 97.335938 L 132.105469 97.335938 L 133.015625 98.285156 C 133.507812 98.84375 135.824219 102.253906 138.136719 105.945312 C 140.453125 109.597656 144.03125 115.289062 146.101562 118.59375 C 148.171875 121.863281 150.90625 126.21875 152.167969 128.257812 C 155.746094 134.089844 154.097656 133.527344 167.882812 133.527344 C 178.023438 133.527344 179.636719 133.457031 179.808594 133 C 180.195312 132.015625 179.285156 131.523438 176.757812 131.277344 C 175.390625 131.136719 173.636719 130.785156 172.828125 130.503906 C 169.253906 129.242188 168.65625 128.539062 160.167969 115.148438 C 154.871094 106.75 155.1875 107.066406 150.625 105.769531 C 149.257812 105.382812 146.765625 104.363281 145.082031 103.484375 C 141.328125 101.550781 136.101562 98.179688 136.101562 97.6875 C 136.101562 97.476562 137.613281 97.335938 140.066406 97.335938 C 146.941406 97.335938 154.625 96 160.273438 93.820312 C 167.742188 90.9375 171.425781 86.441406 171.8125 79.800781 C 171.988281 76.214844 171.53125 73.652344 170.128906 70.699219 C 168.304688 66.800781 164.164062 63.179688 159.640625 61.457031 C 154.941406 59.699219 154.132812 59.664062 122.070312 59.523438 C 101.375 59.417969 91.800781 59.488281 91.203125 59.769531 Z M 144.347656 61.808594 C 147.117188 62.40625 150.976562 64.480469 152.414062 66.132812 C 157.640625 72.246094 157.78125 84.332031 152.730469 89.957031 C 150.90625 91.957031 148.941406 93.257812 146.242188 94.207031 C 144.101562 94.980469 143.433594 95.015625 131.4375 95.15625 C 121.964844 95.261719 118.773438 95.191406 118.390625 94.875 C 117.933594 94.488281 117.863281 92.027344 117.863281 78.429688 C 117.863281 63.671875 117.898438 62.371094 118.492188 61.738281 C 119.054688 61.070312 119.511719 61.070312 130.839844 61.246094 C 137.296875 61.351562 143.398438 61.632812 144.347656 61.808594 Z M 144.347656 61.808594 "/>
<path style=" stroke:none;fill-rule:nonzero;fill:rgb(0%,0%,0%);fill-opacity:1;" d="M 270.03125 59.804688 C 268.945312 60.613281 269.855469 61.070312 273.433594 61.492188 C 278.34375 62.089844 280.273438 63.25 281.957031 66.625 C 283.851562 70.382812 283.851562 70.59375 283.851562 97.160156 C 283.851562 121.476562 283.851562 121.792969 283.082031 124.144531 C 281.78125 128.257812 278.660156 130.609375 273.609375 131.207031 C 271.46875 131.488281 269.75 132.050781 269.75 132.507812 C 269.75 133.457031 271.890625 133.5625 296.65625 133.527344 C 323.804688 133.527344 325.210938 133.421875 330.613281 131.769531 C 343.238281 127.835938 352.710938 117.433594 355.199219 104.75 C 355.867188 101.304688 355.867188 94.382812 355.199219 90.972656 C 352.429688 76.8125 343.238281 65.992188 330.367188 61.667969 C 324.261719 59.628906 324.015625 59.628906 296.234375 59.488281 C 275.539062 59.382812 270.523438 59.417969 270.03125 59.804688 Z M 317.878906 61.667969 C 323.351562 62.546875 327.769531 64.832031 331.171875 68.449219 C 334.75 72.28125 337.660156 79.34375 338.820312 87.144531 C 339.484375 91.675781 339.941406 97.40625 339.765625 98.707031 C 339.660156 99.40625 339.484375 101.234375 339.382812 102.78125 C 339.171875 105.453125 338.574219 108.929688 337.800781 111.8125 C 337.59375 112.550781 337.3125 113.675781 337.136719 114.273438 C 336.609375 116.273438 335.066406 119.753906 333.804688 121.863281 C 330.226562 127.730469 325.699219 130.261719 317.421875 131.03125 C 311.773438 131.558594 298.796875 131.558594 298.234375 130.996094 C 297.917969 130.679688 297.8125 122.460938 297.8125 96.210938 C 297.8125 63.882812 297.847656 61.84375 298.445312 61.527344 C 299.390625 60.964844 314.265625 61.070312 317.878906 61.667969 Z M 317.878906 61.667969 "/>
<path style=" stroke:none;fill-rule:nonzero;fill:rgb(0%,0%,0%);fill-opacity:1;" d="M 296.515625 184.304688 C 293.605469 185.113281 291.183594 186.515625 288.832031 188.730469 C 285.21875 192.210938 283.675781 195.933594 283.710938 200.996094 C 283.746094 211.042969 291.5 218.5625 301.847656 218.5625 C 307.179688 218.5625 311.109375 216.914062 314.828125 213.152344 C 317.070312 210.902344 317.84375 209.671875 319.210938 206.441406 C 319.457031 205.84375 319.738281 203.875 319.84375 202.011719 C 320.121094 196.566406 318.578125 192.527344 314.859375 188.871094 C 311.285156 185.359375 307.039062 183.777344 301.496094 183.8125 C 299.777344 183.8125 297.496094 184.058594 296.515625 184.304688 Z M 304.757812 186.832031 C 308.230469 187.289062 312.476562 190.101562 314.476562 193.265625 C 318.230469 199.203125 317.210938 207.25 312.089844 211.746094 C 308.757812 214.699219 303.8125 216.105469 299.390625 215.367188 C 293.917969 214.453125 290.097656 211.675781 287.886719 206.96875 C 286.484375 204.050781 286.167969 199.589844 287.113281 196.566406 C 288.132812 193.300781 291.464844 189.679688 294.867188 188.097656 C 296.9375 187.148438 301.109375 186.234375 302.304688 186.445312 C 302.722656 186.515625 303.8125 186.691406 304.757812 186.832031 Z M 304.757812 186.832031 "/>
<path style=" stroke:none;fill-rule:nonzero;fill:rgb(0%,0%,0%);fill-opacity:1;" d="M 270.488281 184.761719 C 269.785156 185.324219 269.75 185.746094 269.679688 198.183594 C 269.609375 207.953125 269.46875 211.007812 269.15625 211.007812 C 268.699219 211.007812 266.945312 208.9375 256.070312 195.722656 C 247.757812 185.605469 247.089844 184.902344 245.476562 184.621094 C 243.125 184.234375 243.089844 184.339844 243.089844 201.660156 C 243.089844 214.910156 243.160156 216.808594 243.652344 217.300781 C 244.285156 217.964844 245.863281 218.035156 246.074219 217.40625 C 246.179688 217.195312 246.285156 211.21875 246.355469 204.15625 C 246.425781 192.457031 246.597656 190.101562 247.265625 190.101562 C 247.371094 190.101562 247.828125 190.664062 248.28125 191.332031 C 249.546875 193.300781 268.664062 216.527344 269.75 217.40625 C 270.628906 218.140625 272.3125 217.789062 272.800781 216.808594 C 273.433594 215.542969 273.46875 185.429688 272.835938 184.9375 C 271.925781 184.234375 271.152344 184.164062 270.488281 184.761719 Z M 270.488281 184.761719 "/>
<path style=" stroke:none;fill-rule:nonzero;fill:rgb(0%,0%,0%);fill-opacity:1;" d="M 110.742188 185.078125 C 110.214844 185.675781 110.144531 187.253906 110.109375 201.277344 C 110.039062 218 110.039062 218 111.863281 217.789062 L 112.777344 217.683594 L 112.953125 205.035156 C 113.058594 198.078125 113.195312 192.351562 113.230469 192.28125 C 113.511719 191.964844 114.320312 192.316406 114.53125 192.808594 C 114.636719 193.160156 117.371094 197.832031 120.5625 203.207031 C 124.808594 210.304688 126.492188 212.871094 126.773438 212.589844 C 127.019531 212.414062 129.859375 207.742188 133.15625 202.257812 C 136.417969 196.742188 139.296875 192.246094 139.539062 192.210938 C 139.855469 192.210938 139.960938 194.773438 139.960938 203.980469 C 139.960938 217.054688 140.03125 217.613281 141.855469 217.4375 C 142.734375 217.371094 142.976562 217.125 143.152344 216.28125 C 143.292969 215.683594 143.398438 208.867188 143.433594 201.066406 C 143.46875 184.058594 143.433594 183.742188 140.523438 184.972656 C 139.539062 185.394531 138.699219 186.515625 135.226562 192.421875 C 129.121094 202.714844 126.984375 206.089844 126.5625 206.089844 C 126.246094 206.089844 123.894531 202.292969 116.808594 190.277344 C 115.371094 187.851562 113.933594 185.640625 113.652344 185.359375 C 112.707031 184.515625 111.40625 184.375 110.742188 185.078125 Z M 110.742188 185.078125 "/>
<path style=" stroke:none;fill-rule:nonzero;fill:rgb(0%,0%,0%);fill-opacity:1;" d="M 156.871094 184.902344 C 156.554688 185.21875 156.449219 189.011719 156.449219 201.207031 C 156.449219 218.527344 156.378906 218.035156 158.449219 217.789062 L 159.429688 217.683594 L 159.429688 184.65625 L 158.378906 184.550781 C 157.78125 184.480469 157.113281 184.65625 156.871094 184.902344 Z M 156.871094 184.902344 "/>
<path style=" stroke:none;fill-rule:nonzero;fill:rgb(0%,0%,0%);fill-opacity:1;" d="M 172.65625 184.902344 C 172.09375 185.464844 172.058594 216.140625 172.585938 217.195312 C 172.933594 217.824219 173.460938 217.859375 184.722656 217.859375 L 196.4375 217.859375 L 196.824219 217.019531 C 197.105469 216.421875 197.105469 216 196.824219 215.4375 C 196.402344 214.699219 196.226562 214.699219 186.792969 214.699219 C 181.390625 214.699219 176.792969 214.558594 176.300781 214.347656 L 175.390625 213.996094 L 175.390625 199.660156 C 175.390625 184.585938 175.390625 184.480469 173.8125 184.480469 C 173.390625 184.480469 172.898438 184.65625 172.65625 184.902344 Z M 172.65625 184.902344 "/>
<path style=" stroke:none;fill-rule:nonzero;fill:rgb(0%,0%,0%);fill-opacity:1;" d="M 215.625 185.078125 C 215.34375 185.429688 213.378906 189.1875 211.347656 193.441406 C 207.03125 202.257812 201.207031 214.382812 200.472656 215.929688 C 199.910156 217.160156 200.296875 217.859375 201.558594 217.859375 C 202.75 217.859375 204.015625 216.5625 204.925781 214.347656 C 206.75 210.058594 208.398438 207.285156 209.523438 206.617188 C 210.539062 205.984375 211.3125 205.914062 217.484375 205.914062 C 223.554688 205.914062 224.464844 205.984375 225.410156 206.582031 C 226.464844 207.25 228.429688 210.480469 230.042969 214.347656 C 231.09375 216.808594 232.289062 217.929688 233.761719 217.789062 C 234.671875 217.683594 234.847656 217.542969 234.777344 216.808594 C 234.777344 216.316406 231.9375 210.234375 228.535156 203.277344 C 225.132812 196.320312 221.835938 189.609375 221.273438 188.34375 C 219.835938 185.253906 219.0625 184.480469 217.484375 184.480469 C 216.710938 184.480469 215.976562 184.726562 215.625 185.078125 Z M 221.378906 195.617188 C 223.726562 200.46875 224.429688 202.222656 224.113281 202.433594 C 223.867188 202.574219 220.851562 202.714844 217.414062 202.75 C 212.503906 202.75 211.101562 202.679688 210.960938 202.292969 C 210.785156 201.800781 216.117188 190.3125 217.027344 189.328125 C 217.34375 188.976562 217.730469 188.800781 217.871094 188.90625 C 218.046875 189.011719 219.625 192.035156 221.378906 195.617188 Z M 221.378906 195.617188 "/>
</g>
</svg>
